<svg xmlns="http://www.w3.org/2000/svg" width="30.19" height="23.704" viewBox="0 0 30.19 23.704">
  <g id="Group_170" data-name="Group 170" transform="translate(-282 -19.866)">
    <path id="Path_450" data-name="Path 450" d="M38.13,573.241a6.244,6.244,0,0,1-.171-.985q-.039-.459-.039-.88t.039-.867a6.285,6.285,0,0,1,.171-.972H67.9a6.349,6.349,0,0,1,.171.972q.039.447.039.867t-.039.88a6.307,6.307,0,0,1-.171.985Z" transform="translate(244.08 -529.672)" fill="#fff"/>
    <path id="Path_451" data-name="Path 451" d="M38.13,573.241a6.244,6.244,0,0,1-.171-.985q-.039-.459-.039-.88t.039-.867a6.285,6.285,0,0,1,.171-.972H67.9a6.349,6.349,0,0,1,.171.972q.039.447.039.867t-.039.88a6.307,6.307,0,0,1-.171.985Z" transform="translate(244.08 -539.672)" fill="#fff"/>
    <path id="Path_452" data-name="Path 452" d="M38.13,573.241a6.244,6.244,0,0,1-.171-.985q-.039-.459-.039-.88t.039-.867a6.285,6.285,0,0,1,.171-.972H67.9a6.349,6.349,0,0,1,.171.972q.039.447.039.867t-.039.88a6.307,6.307,0,0,1-.171.985Z" transform="translate(244.08 -549.672)" fill="#fff"/>
  </g>
</svg>
