<svg xmlns="http://www.w3.org/2000/svg" width="25" height="25" viewBox="0 0 25 25">
  <path id="Trazado_384" data-name="Trazado 384" d="M465.649,415.5a1.654,1.654,0,0,0,1.113-.45,1.684,1.684,0,0,0,.45-1.113,1.656,1.656,0,0,0-.45-1.106,1.638,1.638,0,0,0-2.225,0,1.6,1.6,0,0,0-.45,1.106,1.537,1.537,0,0,0,1.562,1.563Zm-1.112,3.581a1.6,1.6,0,0,0-.45,1.106,1.573,1.573,0,0,0,2.675,1.113,1.684,1.684,0,0,0,.45-1.113,1.656,1.656,0,0,0-.45-1.106A1.638,1.638,0,0,0,464.537,419.078Zm-4.681-6.25a1.6,1.6,0,0,0-.456,1.106,1.547,1.547,0,0,0,1.563,1.563,1.654,1.654,0,0,0,1.112-.45,1.684,1.684,0,0,0,.45-1.113,1.559,1.559,0,0,0-2.669-1.106Zm0,6.25a1.6,1.6,0,0,0-.456,1.106,1.547,1.547,0,0,0,1.563,1.563,1.654,1.654,0,0,0,1.112-.45,1.684,1.684,0,0,0,.45-1.113,1.559,1.559,0,0,0-2.669-1.106Zm-4.688,0a1.6,1.6,0,0,0-.456,1.106,1.569,1.569,0,0,0,2.669,1.113,1.66,1.66,0,0,0,.456-1.113,1.563,1.563,0,0,0-2.669-1.106ZM471.9,406.122h-3.125v-1.562a1.563,1.563,0,0,0-3.125,0v1.563h-9.375v-1.562a1.563,1.563,0,0,0-3.125,0v1.563h-3.125a1.563,1.563,0,0,0-1.563,1.563v18.75A1.563,1.563,0,0,0,450.025,428H471.9a1.563,1.563,0,0,0,1.563-1.563v-18.75A1.563,1.563,0,0,0,471.9,406.122Zm-1.562,18.75h-18.75V409.247h18.75Zm-4.688-9.375a1.654,1.654,0,0,0,1.113-.45,1.684,1.684,0,0,0,.45-1.113,1.656,1.656,0,0,0-.45-1.106,1.638,1.638,0,0,0-2.225,0,1.6,1.6,0,0,0-.45,1.106,1.537,1.537,0,0,0,1.562,1.563Zm0,6.25a1.654,1.654,0,0,0,1.113-.45,1.684,1.684,0,0,0,.45-1.113,1.656,1.656,0,0,0-.45-1.106,1.638,1.638,0,0,0-2.225,0,1.6,1.6,0,0,0-.45,1.106,1.537,1.537,0,0,0,1.562,1.563Zm-4.687-6.25a1.654,1.654,0,0,0,1.112-.45,1.684,1.684,0,0,0,.45-1.113,1.559,1.559,0,0,0-2.669-1.106,1.6,1.6,0,0,0-.456,1.106,1.547,1.547,0,0,0,1.563,1.563Zm0,6.25a1.654,1.654,0,0,0,1.112-.45,1.684,1.684,0,0,0,.45-1.113,1.559,1.559,0,0,0-2.669-1.106,1.6,1.6,0,0,0-.456,1.106,1.547,1.547,0,0,0,1.563,1.563Zm-4.687,0a1.626,1.626,0,0,0,1.106-.45,1.66,1.66,0,0,0,.456-1.113,1.563,1.563,0,1,0-3.125,0,1.547,1.547,0,0,0,1.563,1.563Zm10.488-8.919a1.638,1.638,0,0,0-2.225,0,1.6,1.6,0,0,0-.45,1.106,1.573,1.573,0,0,0,2.675,1.113,1.684,1.684,0,0,0,.45-1.113A1.656,1.656,0,0,0,466.762,412.828Zm0,6.25a1.638,1.638,0,0,0-2.225,0,1.6,1.6,0,0,0-.45,1.106,1.573,1.573,0,0,0,2.675,1.113,1.684,1.684,0,0,0,.45-1.113A1.656,1.656,0,0,0,466.762,419.078Zm-4.688-6.25a1.63,1.63,0,0,0-2.219,0,1.6,1.6,0,0,0-.456,1.106,1.547,1.547,0,0,0,1.563,1.563,1.654,1.654,0,0,0,1.112-.45,1.684,1.684,0,0,0,.45-1.113A1.632,1.632,0,0,0,462.075,412.828Zm0,6.25a1.63,1.63,0,0,0-2.219,0,1.6,1.6,0,0,0-.456,1.106,1.547,1.547,0,0,0,1.563,1.563,1.654,1.654,0,0,0,1.112-.45,1.684,1.684,0,0,0,.45-1.113A1.632,1.632,0,0,0,462.075,419.078Zm-4.694,0a1.622,1.622,0,0,0-2.213,0,1.6,1.6,0,0,0-.456,1.106,1.569,1.569,0,0,0,2.669,1.113,1.66,1.66,0,0,0,.456-1.113A1.609,1.609,0,0,0,457.381,419.078Zm.456-5.144a1.66,1.66,0,0,1-.456,1.113,1.563,1.563,0,0,1-2.669-1.113,1.582,1.582,0,0,1,.456-1.106,1.563,1.563,0,0,1,2.669,1.106Z" transform="translate(-448.462 -402.997)" fill="#880008"/>
</svg>
