<svg xmlns="http://www.w3.org/2000/svg" width="360.416" height="417.406" viewBox="0 0 360.416 417.406">
  <g id="Character_reading" data-name="Character/reading" transform="translate(-215 -39.623)">
    <path id="Accent" d="M371.284,191.137q-.642,10.489-1.284,20.977c2.752-.793,20.259-5.944,19.178-.721-.776,3.746-5.7,7.8-8.206,10.406q-3.462,3.6-7.122,7.01,6.719-2.572,13.545-4.858c3.442-1.15,6.91-2.271,10.437-3.133,1.309-.32,4.844-1.626,6.081-.736,3.25,2.339-14.385,19.568-16.8,22a112.88,112.88,0,0,1,10.471-4.27c2.569-.894,10.5-4.311,12.776-1.393,2.433,3.122-3.594,10.289-5.266,12.562a115.617,115.617,0,0,1-7.713,9.368C408.7,268.511,422,277.56,436.154,283.183a53.3,53.3,0,0,0,31.524,2.911c11.25-2.325,22.04-6.783,32.3-11.881a184.254,184.254,0,0,0,17.631-9.873q-3.5-4.259-6.8-8.681c-3.143-4.2-7.006-8.794-8.8-13.8-1.754-4.9,4.826-3.94,7.982-3.674a105.727,105.727,0,0,1,13.609,2.179q-4.751-3.3-9.324-6.859c-3.972-3.083-9.27-6.568-11.869-11-2.286-3.9,2.731-2.915,5.051-2.4a114.564,114.564,0,0,1,16.189,5.32q5.795,2.225,11.505,4.673-3.54-3.078-6.833-6.431c-2.948-3-6.921-6.655-8.242-10.781-2.69-8.4,15.408-2.065,18.5-.768q-.857-13.057-1.712-26.113l-71.895,19.131c-2.59.689-5.831,2.19-8.532,2.27-2.446.073-5.4-1.028-7.786-1.484l-43.367-8.286-33.993-6.5" transform="translate(-61.014 -57.619)" fill="#ee2632" fill-rule="evenodd"/>
    <g id="Ink" transform="translate(215 39.623)">
      <path id="ink-2" data-name="ink" d="M352.84,393.282a36.4,36.4,0,0,1-8.492,3.39c-1.688.451-4.477,1.843-5.961.567-.712-.612-.875-2-1.3-2.809a23.288,23.288,0,0,0-2.5-3.506c-2.146-2.733-4.379-5.369-6.715-7.941-1.107-1.219-3.129-4.063-5.08-3.876-2.431.233-2.373,3.6-1.764,5.318,1.94,5.474,7.813,10.246,11.649,14.37-.976,1.5-6.332,1.322-7.82.971-2.271-.537-2.5-2.153-3.538-4-2.424-4.323-7.342-6.741-11.385-9.282-1.474-.928-4.607-3.5-6.527-2.85-1.82.613-1.741,2.938-1.162,4.457.876,2.3,3.367,3.887,5.21,5.337a48.482,48.482,0,0,1,6.751,6.4c-2.951.241-5.891.657-8.835.9-3.56.294-6.527-1.66-9.8-2.767-3.045-1.029-6.079-1.9-9.074-3.085-3.362-1.332-6.883-1.794-10.275-2.963-13.309-4.584-26.35-10.349-39.175-16.16-6.111-2.769-12.1-5.54-18.464-7.707-4.64-1.58-11.933-4.728-13.042-10.256-.586-2.92,1.548-6.061,1.863-8.98a26.368,26.368,0,0,0-.967-10.5c-.922-2.9-2.45-5.589-3.653-8.374-1.4-3.247-.147-3.194,2.578-3.564,3.261-.443,7.067-2.278,10.132-3.473a66.4,66.4,0,0,0,10.265-5.283,37.522,37.522,0,0,0,7.8-6.6c2.369-2.55,3.9-5.571,6.193-8.182,8.452,10.395,16.486,20.947,25.467,30.893a77.283,77.283,0,0,0,14.072,12.145,58.117,58.117,0,0,0,6.722,4.372c2.972,1.475,6.294,2.39,9.348,3.736a285.728,285.728,0,0,1,33.814,17.459,105.441,105.441,0,0,1,14.376,10.954c1.449,1.258,13.316,8.588,9.286,10.895M215.458,308.124a39.131,39.131,0,0,1-5.716,2.521c.572-3.483,3.822-8.736,7.989-8.158,1.592.22,2.793,1.457,2.094,3.161-.636,1.549-3.019,1.866-4.368,2.476M83.724,213.657c-2.145,1.185-4.144,1.875-5.4-.668.932-.187,5.165-.751,5.4.668m-3.572-7.188c-1.658-.5-.332-1.031.238-1.638a20.461,20.461,0,0,1,2.431-2.4c2.274-1.2,4.032,3.278,5.12,4.733-2.575-.229-5.283.067-7.789-.692M97.88,221.991c-3.143.532-2.794-3.4-2.7-5.392.663.81,5.15,4.976,2.7,5.392M108.3,215.2c-3.832.647-6.363-5.973-5.676-8.869.6-2.55,3.573-3.975,5.938-4.351,2.291-.365,5.481.133,6.161,2.775.6,2.336-3.869,10.013-6.423,10.445m90.7,99.93c-2.753.846-5.451.953-8.219,1.783-3.14.943-6.046.859-9.192,1.5-1.28.26-4.733,2.125-5.981,1.709s-3.027-4.251-3.738-5.249c5.566-2.314,10.315-5.3,13.985-10.177,2.917-3.877,6.046-9.686,4.211-14.69-2.07-5.642-9.206-6.867-13.963-4.51a27.462,27.462,0,0,0-6.338,4.2c-2.122,1.942-2.956,4.061-4.331,6.456-1.39,2.422-2.365,1.075-3.755-.982-1.187-1.758-1.032-3.533-2.515-5.268-.757-.885-1.929-1.738-2.324-2.881-.25-.725.277-2.009-.2-2.581-.668-.8-1.48.141-2.04-.575-.406-.52-.273-1.706-.693-2.356a5.834,5.834,0,0,0-1.217-.948q-.815-.4-.3-1.008c-.432-.8-.016-1.069-.94-2.042a24.963,24.963,0,0,1-3.783-4.759c-.469-.819-.423-2.034-1.005-2.743-.8-.973-2.132-.827-2.82-2.032-.612-1.074-.2-2.952-1.213-3.927q-.8-.227-1.6-.448a2.3,2.3,0,0,1-.7-1.419,29.156,29.156,0,0,0-1.381-2.79c-1.356-1.745-3.179-3.357-4.377-5.2-1.259-1.934-.591-2.26,1.6-2.952a26.5,26.5,0,0,0,5.6-2.268c8.451-4.918,16.463-17.964,3.049-21.95-4.978-1.479-9.067-5.456-14.587-3.893a15.858,15.858,0,0,0-6.447,3.833c-1.233,1.184-2.376,4.349-3.89,4.956-2.723,1.09-1.572-1.634-2.344-2.886-.369-.6-1.854-1.285-2.4-1.829a10.693,10.693,0,0,1-1.719-2.23,13.572,13.572,0,0,0-2.542-3.47c-.452-.45-2.712-2.774-.674-2.47-.825-2.515.379-2.894,2.044-4.731,1.955-2.159,3.974-5.157,3.985-8.181.022-5.807-6.857-8.408-11.178-4.961-.879.7-6.079,7.471-5.015,3.154.574-2.328,5.885-8.407,8.348-6.834-2.76-4.023-9.1,5.743-10.579,7.742-1.26-2.32-1.349-4.135-3.434-5.931-1.7,2.723-.8-.252-1.175-.857-.808-1.306-.364.188-.8-.276a20.742,20.742,0,0,1-1.986-1.8c-1,1.35-.6-.1-.9-.607-.712-1.179-.437-1.862-1.658-2.887a8.939,8.939,0,0,0-3.836-2.009c-1.379-.122-1.761.406-3.167.015-1.788-.5-4.038-1.261-3.173,1.73.629,2.173,3.184,3.408,3.744,5.629.563,2.236-1.647,4.488-2.719,6.321-1.377,2.351-2.5,2.159-5,2.689-1.594.339-3.722,1.064-2.354,3,.976,1.382,3.265,1.091,4.553,1.909,1.807,1.148,1.782,3.977,4.089,4.47,2.541.541,4-2.287,6.138-2.97,1.523-.486,6.242-.432,7.441.712,1.634,1.558.222,4.536.633,6.472.612,2.871,2.554,3.046,5.01,3.138,3.024.113,4.087,3.017,5.713,5.32,3.809,5.395,7.12,11.146,11.022,16.468,1.728,2.357,4.254,4.453,5.668,7.011,1.746,3.159-.678,4.981-2.77,7.248-2.734,2.963-4.775,6.335-7.147,9.573-2.107,2.878-4.726,2.162-8.093,2.162.75-1.547,1.653-2.512,3.5-2.324-1.931-2.358-3.474.339-4.727,1.832-1.812,2.16-4.174,2.681-6.5,4.1-.823.5-5.307,3.759-3.945,4.872.155.126,7.578-4.758,8.423-5.205,0,1.8-.394,3.675-.141,5.468.185,1.315,1.109,2.686.912,4.052-.373,2.58-3.707,4.612-5.138,6.622-1.078,1.513-.817,2.707-1.366,4.331-.5,1.481-.238,1.033-1.484,1.49a12.72,12.72,0,0,1-9.105-.9,19.309,19.309,0,0,1-3.678-3.268c-.873-.863-3.068-2.339-3.31-3.547-.416-2.081,3.715-5.948,4.533-8.094,2.309-6.058-1.651-10.766-7.812-11.11,1.9-1.465,4.253-.361,6.255.2-3.422-4.742-9.266-.84-12.169,2.382-1.983-5.013-2.94-10.3-4.151-15.531-.825-3.559-3.967-9.913-2.566-13.58.677-1.772,2.59-2.76,3.912-3.989a24.383,24.383,0,0,0,3.889-4.794c2.589-4.072,4.084-9.211.519-13.223l3.25-.534c-1.761-1.655-4.541-.849-6.827-1.34-1.45-.311-5.625-.11-6.593-.931-1.165-.987-.418-5.529-.377-6.873.1-3.142.358-6.162.705-9.284.329-2.95.263-6.136.872-9.034.495-2.352,2.076-3.068,3.9-4.454,4.361-3.314,7.915-7.344,6.426-13.054l1.583-.252c-1.706-1.233-3.914-.785-5.812-1.437,1.743-4.905,5.6-13.529,11.856-13.994.215,2.193.068,4.8,1.547,6.617a5.717,5.717,0,0,0,6.923,1.181,11.307,11.307,0,0,0,4.969-5.176c.646-1.407.529-3.786,1.663-4.9,1.52-1.5,12-.594,11.677,1.931-.189,1.485-2.991,3.98-3.774,5.3a24.162,24.162,0,0,0-3.107,7.778c-.8,4.2-.336,9.743,3.929,11.951,4.85,2.512,10.761-.682,14.739-3.441a69.9,69.9,0,0,0,6.295-4.942,33.663,33.663,0,0,0,3.068-2.959c.692-.785,1.244-2.05,2.1-2.636,2.011-1.388,3.983.967,5.685,2.156a88.067,88.067,0,0,0,8.507,5.388c6.038,3.271,11.559,7.6,16.9,11.906,5.37,4.328,10.907,8.78,15.257,14.171-2.635,1.621-2.165,2.042-3.337,4.933-.832,2.052-1.978,3.8-2.11,6.078a7.777,7.777,0,0,0,6.13,8.158,9.659,9.659,0,0,0,6.172-.779c1.544-.682,3.082-2.358,4.7-2.775,3-.773,5.4,4.89,7.077,6.885,7.463,8.86,15.352,17.369,22.38,26.591.778,1.022,3.09,3.017,3.278,4.369.27,1.942-2.785,3.792-4.052,4.905-.666.585-7.721,7.222-5.352,8.276.675.3,2.652-3.771,3.146-4.12,1.851-1.3.451,1.252.341,2.544-.276,3.211,1.93,4.961,5.03,4.554,3.309-.434,6.254-3.046,8.3-5.513,2.566,2.972,6.577,7.464,7.318,11.434.474,2.536-1.72,8.743,2.376,9.261.625.078,2.888-1.6,3.31-.648.352.8-2.094,2.156-2.447,2.419a24.027,24.027,0,0,0-3.635,3.694c-1.429,1.6-3.381,2.948-4.989,4.481-1.694,1.615-5.044,6-7.278,3.882-1.123-1.065-.828-2.458-2.627-3.083-1.638-.569-3.714.153-5.236.784-1.714.71-7.359,3.3-7.985,5.438-.864,2.944,3.8-.6,4.631-1.113-.946,2.4-1.469,5.878-3.878,7.279-2,1.164-4.881,1.848-7.076,2.523m-32-18.162c1.6-5.149,11.049-14.33,17.02-11.458-6.959,1.458-12.481,6.221-17.02,11.458m3.533,14.745c-2.328-1.3-2.2-5.067-3.015-7.272-.467-1.266-1.4-2.19-1.125-3.594.321-1.646,2.421-3.476,3.538-4.663,3.517-3.736,9.707-8.843,15.368-7.986,7.205,1.091,2.321,10.765-.133,14.1-2.091,2.84-10.149,11.918-14.632,9.42m-16.81-6.3a199.406,199.406,0,0,1-23.244-2.647c-2.725-.508-5.008-.432-3.449-3.565.515-1.034,3.619-7.515,4.32-7.329.415.11.321,4.565.443,5.075.551,2.293,2.1,4.43,4.7,4.284,4.262-.237,7.009-5.748,9.253-8.706,1.8,2.417,3.1,5.1,4.906,7.479.864,1.136,3.871,3.779,3.071,5.409m-45.685-30.589c-1.307,3-3.937,5.853-5.765,8.572-1.034-2.189-1.761-7.213.691-8.831.928-.612,5.9-1.637,5.074.26m27.026,8.934c.36-1.155.758-2.3,1.2-3.425.762,2.4,1.152,2.471-1.2,3.425m6.67,2.458c.946,1.6,2.522,3.18,2.275,5.193-.187,1.526-1.566,3.089-2.551,4.152-1.63,1.758-5.24,5.134-7.6,2.8-1.973-1.951-1.286-7.315-.368-9.51,1.31-3.136,5.991-6.454,8.245-2.635m-4.628-3.285c.542-.216-.6-3.715.46-4.063.922,2.1,1.791,2.671-.46,4.063m-14.89-47.092c-.351-1.291-1.156-1.237-.866-2.833A8.042,8.042,0,0,1,123,230.013a15.807,15.807,0,0,1,4.7-4.047c3.781-2.176,8.975-3.08,12.361.327-3.165.5-12.869,3.624-12.931,7.954,3.52-.678,6.288-4.214,9.818-5.328a14.464,14.464,0,0,1,8.923.115c7.891,2.643,4.61,9.463.156,13.893a26.971,26.971,0,0,1-9.279,5.948,6.4,6.4,0,0,1-4.164.381c-.3-.059-.64-.607-.994-.724-.88-.292-.625.7-1.349.252-.632-.387-1.981-2.882-2.411-3.6a25.607,25.607,0,0,0-1.844-3.28c-.841-1.039-1.25-2.431-2.028-3.37-.374-.452-1.4-.434-1.672-.876-.413-.663.113-1.145-.072-1.823M110.092,286.7c1.794-3.116,4.862-5.761,7.236-8.485.146,4.477-3.064,7.542-7.236,8.485m2.424,1.439a9.2,9.2,0,0,0,6.122-8.2c.48-4.788,3.486-7.3,5.3-11.6.694-1.648,1.5-7.073,4.194-5.52.923.532,1.47,2.536,1.951,3.441,1.164,2.189,2.487,4.311,3.721,6.461,1,1.751,2.511,3.51,2.068,5.617-.387,1.837-1.63,3.795-2.359,5.526-1.72,4.092-3.98,7.86-5.868,11.862-.762,1.614-1.663,5.436-3.989,5.417-1.841-.016-1.635-2.029-2.847-2.719-1.53-.871-3.27.786-4.527,1.473a6.591,6.591,0,0,1,6.822-3.367c-3.405-3.391-5.706,1.184-8.629,2.2-2.769.966-7.682-3.589-10.013-4.879.892-1.51,1.7-3.358,3.232-4.352,1.455-.943,3.24-.8,4.829-1.357M82.405,319.135c.406-1.953,1.552-3.108,2.278-4.881.842,2.15-1.13,3.419-2.278,4.881m58.843,11.982c-.2,6.577-.736,13.135-.93,19.713-.089,3.034-.626,5.927-.983,8.926-.3,2.535-.148,5.026-1.744,7.192-2.516,3.416-7.409,4.4-11.207,5.663-2.789.928-5.611,1.772-8.365,2.8-2.479.929-4.476,2.336-6.833,3.44-2.108.988-4.384,1.574-6.483,2.626-2.171,1.088-3.886,2.415-6.116,3.384-2.669,1.16-4.868,3.225-7.242,4.863-2.09,1.443-4.3,2.556-6.1,4.37-1.686,1.7-3.819,2.448-5.73,3.96a45.85,45.85,0,0,1-6.366,3.891c-4.571,2.569-10.739,6.956-16.24,4.461,1.573-2.01,4.794-3.941,5.039-6.71.318-3.607-2.821-2.279-4.639-1.127-2.753,1.745-4.277,3.85-6.373,6.176-2.451,2.718-5.546.889-8.544.124,2.05-1.846,4.084-3.708,6.13-5.557,1.728-1.56,4.371-3.248,5.423-5.405.752-1.543.715-3.658-1.1-4.459-2.03-.9-4.326.993-5.829,2.117-3.991,2.986-6.62,6.774-9.241,10.93-1.394,2.21-2.036,2.04-4.6,1.6-2.718-.468-5.436-.967-8.176-1.3,3.63-3.728,7.687-7.766,10.553-12.128.929-1.413,2.14-5.138-.689-5.481-1.166-.141-3.488,2.243-4.387,2.886a39.2,39.2,0,0,0-10.316,10.456c-.86,1.354-1.13,2.86-2.8,2.972-2.177.147-6.223-1.931-8.324-2.573a138.661,138.661,0,0,1,12.691-14.621,80.828,80.828,0,0,1,13.648-10.226,160.444,160.444,0,0,0,15.392-11.236c4.747-3.813,9.706-7.409,14.075-11.666A153.292,153.292,0,0,0,87.79,322.56a76.047,76.047,0,0,0,4.15-7.478c1.151-2.418,1.682-5.309,3.236-7.509.537-.76,1.293-1.324,1.772-2.117.451-.746.3-1.649.987-2.31,1.592-1.529,4.49-.607,5.978.464,2.393,1.723,4.328,3.813,6.958,5.255a34.551,34.551,0,0,0,8.435,3.217c6.845,1.664,13.63,3.029,20.6,4.041-.717,2.661,1.045,3.08,1.629,5.475.709,2.906-.2,6.56-.289,9.519M75.34,286.742c-1.552-2.306-2.937-4.717-4.462-7.037-.929-1.413-2.08-2.932-1.286-4.66,1.337-2.915,6.055-3.433,8.615-2.163,5.82,2.889.414,11.147-2.867,13.86M59.934,234.008c-.536-4.507,1.187-7.7,5.265-10.067,2.906-1.684,5.246.618,4.848,3.688-.6,4.678-5.6,9.88-9.416,12.321-.249-1.978-.461-3.961-.7-5.941m-.621-12.895c1.2-.954,4.424.264,5.817.347l-5.75,5.023c-.125-1.149-1.177-4.489-.067-5.37m6.466-43.523c9.7-1.261-1.466,9.146-4.276,10.776.457-2.214,1.581-10.425,4.276-10.776m25.815-18.219c-1.3,5.334-11.424,11.152-11.531,2.415-.039-3.255,1.789-2.992,4.459-3.3,1.523-.178,7.817-2.16,7.072.889m-34.965,8.26c-1.137,2.983-2.048,6.042-3.161,9.029a9.792,9.792,0,0,1-1.993,3.279c-.769.876-1.685,1.1-1.655,2.481a6.52,6.52,0,0,0,2.5-1.314c-.189,2.744-1.159,5.7-1.629,8.435a84.527,84.527,0,0,0-1.205,9.89c-.377,7.235-.38,14.444-.222,21.682.081,3.689.118,7.38.317,11.064.1,1.833.212,3.674.438,5.5.092.736.626,2.3.3,2.991-1.3,2.706-7.032-4.727-9.524-3.636.358-2.059-.468-1.609-1.849-2.621-.669-.491-1.1-1.326-1.8-1.763a4.382,4.382,0,0,0-.7-.608q-.433-.589-.912.126c-2.807-1.678-3.532-5.254-5.039-7.66-.775-1.237-1.524-1.43-1.656-3.14-.115-1.49.11-3.009.049-4.506a22.347,22.347,0,0,0-.641-5.184c-.55-1.9-1.306-1.743-2.779-2.755a1.544,1.544,0,0,0,.9-1c-.47.084-1.9.667-2.255.248-.7-.823.95-.933,1.383-1.261-1.848-.82-1.45-1.495-.783-3,.189-.426.369-1.062.53-1.42.351-.784.552-.287.668-1.261.11-.928-.713-2.754-.955-3.742a10.179,10.179,0,0,1-.266-4.821c.3-1.4,1.092-2.667,1.147-4.106.016-.4-.6-.538-.608-.928-.012-.57.52-.821.659-1.347.353-1.349.194-2.775.8-4.055a23.169,23.169,0,0,1,2.42-3.639c.539-.7,1.861-1.478,2.006-2.4.1-.608-.851-.538-.808-1,.057-.62.577-.821.72-1.282.394-1.265.492-2.48,1.509-3.45,1.281-1.22,1.837-.709,1.89-2.721.026-.982-.759-1.133-.339-2.265.229-.614.9-.977,1.334-1.413a17.96,17.96,0,0,0,3.056-4.035c.807-1.41,2.093-2.231,2.919-3.449,1.076-1.587-.533-2.375,1.651-2.822-.31-.986-.64-1.782.176-2.616.515-.526,1.822-.2,2.278-.813.523-.7-.25-2.355.538-2.809.64-.367,1.6.768,2.605.206.767-.428,1.925-2.795,1.678-3.664,1.983,1.116,1.489.347,2.437-1.084.213-.321.858-.392,1.041-.716.366-.647.283-1.307.81-1.833.88-.876,2.318-.651,3.286-1.276.8-.517.757-1.074,1.4-1.562.545-.416,1.441-.5,1.971-.928,1.038-.846,1.048-1.739,2.347-2.467a27.8,27.8,0,0,0,4.3-2.738c.913-.745,1.778-2.066,2.846-2.557,1.476-.68,2.626-.728,4.069-1.7,1.044-.7,2.03-1.858,3.054-2.449a8.707,8.707,0,0,1,2.289-.625c1.753-.5,2.18-2.149,3.61-2.821.982-.462,2.411-.039,3.489-.281,3.354-.753,6.668-2.378,10.035-3.277,4.109-1.1,8.247-2.06,12.387-3.03a82.184,82.184,0,0,1-13.566,13.906c-1.614,1.345-10.454,7.475-5.689,10.092,1.913,1.051,6.068-2.342,7.613-3.172a105.151,105.151,0,0,1,9.588-4.359c5.267-2.185,12.126-6.07,17.979-5.758-3.563,4.372-8.011,7.881-12.086,11.742-3.745,3.549-9.388,6.877-7.622,12.686-5.26-1.339-9.985-2.92-15.454-2.57-2.45.157-4.9-.138-7.34.206a50.724,50.724,0,0,0-7.7,2.041c-2.016.615-4.244.664-6.1,1.688a24.874,24.874,0,0,0-2.81,1.817,10.324,10.324,0,0,0-2.161,2.441c-3.008,3.851-5.918,7.462-7.706,12.154m-16.453,72.9c-.164-.667-.314-1.275-.5-2.036,1.674,1.031,1.674,1.031.5,2.036M27.524,219.3a1.207,1.207,0,0,1-1.325.13c-.314-.306.511-1.5.643-1.752.327.251,1.079,1.072.683,1.621m-3.585-7.727.666-2.442c.272.754,1.5,1.589,1.526,2.308.017.477-1.949.24-2.192.134m.712,1.117c1.921,1.265,2.122,2.757,2.179,4.939-2.3-.761-1.969-2.987-2.179-4.939m33.408-86.14c-.194.525-1.017,2.16-1.62,1.016-.193-.366,1.219-.865,1.62-1.016m-.552-1.783c.475-.427,1.432.1,1.969-.241.377-.243.252-.488.429-.632.035-.029.547-1.065.757-1.3.37-.414,1.178-.671,1.628-1.044a12.738,12.738,0,0,0,2.76-3.809,4.786,4.786,0,0,1,2.769-2.621,9.515,9.515,0,0,0,2.718-2.062c.985-1.029.913-1.766,1.721-2.891.4-.555.974-.624,1.439-1.071.558-.535.841-1.285,1.357-1.826.223-.233.938-.233,1.073-.434.172-.253.306-1.266.468-1.453l.923,1.248c1.214-2.135,2.1-3.9,4.13-5.32,2.132-1.492,3.972-3.675,6.176-5.011.5-.3,1.5-.427,1.883-.869.64-.749.085-1.415.552-2.051.529-.721,1.555-.138,2.228-.448.852-.393,1.1-1.542,2.192-1.415-3.606,4.267-3.561,10.905-3.752,16.234-.083,2.3,1.363,3.454-.772,5.139-1.816,1.433-4.377,1.008-6.524,1.952-2.7,1.184-5.58,1.815-8.331,2.847-2.846,1.067-5.133,2.937-7.872,4.174-2.415,1.09-4.064,2.64-6.273,3.986-.821.5-2.093,1.227-3.072.629-.613-.375-1.377-.991-.577-1.713M98.24,88.989c.156-.606,3.235-2.2,3.992-2.719,1.136-.782,2.819-2.69,4.087-1.932a6.146,6.146,0,0,1,3.67-4.092,21.159,21.159,0,0,0,6.219-3.115c.483-.367.642-.9,1.211-1.25.99-.6,1.972-.273,2.926-1.091.146-.125,1.465-2.3,1.517-2.282.067.234.129.47.183.708a9.136,9.136,0,0,0,2.517-1.705c.141-.161-.776-.578-.486-.9.355-.389,1.146.046,1.5-.324-1.114,5.532-.285,12.654,5.328,15.459-6.675.722-13.194-1.285-19.952-.053a35.114,35.114,0,0,0-9.465,3.046c-1.8.912-4.108,4.177-5.9,2.592a20.852,20.852,0,0,1,2.65-2.345m32.387-15.917a9.394,9.394,0,0,1,10.1-3.168c4.464,1.281,2.581,4.4,1.907,7.863a9.2,9.2,0,0,0-6.455-3.819c-3.369-.08-2.1,2.727-.073,3.732,1.839.914,4.993,1.168,6.31,2.83,1.281,1.617.79,4.261,1,6.168l-2.989-.444c.836-4.449-2.844-4.665-6.275-5.92-3.467-1.267-6.358-3.767-3.518-7.242m11.181-10.958v4.13l-4.165-2.373,4.165-1.757m11.158,33a135.113,135.113,0,0,1,13.693,4.318c1.618.629,3.39.852,4.976,1.563,1.51.676,1.737.606,1.2,1.929-1.5,3.707-5.068,3.067-8.19,2.5-4.887-.888-9.673-2.119-14.5-3.277-4.717-1.131-9.534-1.873-14.18-3.291a142.746,142.746,0,0,0-14.318-3.792c-1.431-.281-12.753-1.319-12.667-2.5,7.13-.926,14.471-.014,21.634.082,7.443.1,15.133.513,22.353,2.47m-6.292-14.34c.089-2.549.124-5.106.441-7.64,2.121,2.618,4.036,3.4,6.71.948,2.56-2.349,3.131-3.574,6.377-1.366,2.814,1.916,5.476,1.828,8.464.151,1.823-1.023,4.752-5.2,6.668-4.342.913.411,1.582,2.063,2.5,2.672a13.9,13.9,0,0,0,4.283,1.586c3.185.7,5.081-1.35,7.08-3.541,2.9-3.177,2.814-1.332,5.5.871,3,2.457,5.5,1.256,8.217-.84a66.133,66.133,0,0,1,2.739,15.212c.157,1.714.746,4.149-.794,5.361-1.085.855-3.389.889-4.7,1.361A47.225,47.225,0,0,0,187.1,98.361c-1.523,1.2-2.85,2.66-4.93,2.387-1.983-.26-3.909-1.92-5.5-3.015a22.573,22.573,0,0,0-5.5-3.2c-1.184-.388-3.082-.248-4.118-.959-1.927-1.322.341-4.792-.139-7.121-.363-1.768-1.381-5.455-3.816-4.419-3.624,1.542-1.515,7.562.478,9.441a87.467,87.467,0,0,1-12.523-3.125c-3.037-1.037-4.476-4.467-4.367-7.576m68.377,12.415a109.58,109.58,0,0,1,24.911-4.362c3.856-.19,7.588-.07,11.4-.035,2.194.02,3.867-1.75,2.114-3.786-2.427-2.82-9.829-1.746-13.109-1.873A66.5,66.5,0,0,0,215.19,86.69c.88-1.622,3-1.832,4.445-2.671a9.106,9.106,0,0,0,3.747-4.608c1.977-4.9-.013-9.508-2.08-13.979,4.061,1.093,8.263,3.485,12.346,4.093a8.072,8.072,0,0,1,2.163.357c.465.191.612.852,1.188,1,.278.07.947-.559,1.262-.47,1.244.351.26.444,1.047.954.624.4.573.923,1.718.733.508-.084,1.058-.87,1.326-.891.341-.028.262-.442.783-.321.948.221.865,1.443,1.181,2.043.337.64-.142,1.492.882,1.842.765.262.957-.546,1.607-.488a3.89,3.89,0,0,1,1.563.951,16.579,16.579,0,0,0,4.174,3.076c-.149-.149.712-.509.506-.594a7.479,7.479,0,0,1,.752.159c.873.2,1.334,1.538,1.774,2.026a8.651,8.651,0,0,0,3.208,2.236c1.965.684,1.905-.133,2.622,2.2,1.4-2.2,1.933,1.483,3.665,1.888.9.21.793-.175,1.608.295.56.322.933,1.309,1.355,1.784q.272-1.029.543-2.059c1.248,2.364,3.942,6.114,6.9,5.435,0,.646-.266,1.417.233,1.968.349.385.914-.052,1.187.171.238.2.808.973.991,1.1.36.252,1.012.436,1.324.688.275.221.412,1.278.717,1.66.574.718,1.566.86,2.034,1.721q.161-1.273.321-2.547a3.133,3.133,0,0,1,1.239,2.329c.326,1.5-.106,1.147.927,1.778,1.015.622,1.544.552,2.475,1.631.912,1.057.92,1.709,2.237.608a5.4,5.4,0,0,0,.977,2.493c.494.472,2.538.492,2.733,1.607-3.841-3.241-1.313,1.681,0,.008.277,1.791,1.588,2.37,3.085,3.645,1.4,1.188,1.624,1.1,2.1,3.1a3.444,3.444,0,0,1,.753.486c-1.36.194.748,1.714,1.1,1.992.26.2.6-.281,1.031.047a10.055,10.055,0,0,1,1.3,1.745,37.045,37.045,0,0,0,3.044,3.73c1.238,1.225,1.84,2.773,3.028,4.2a47.416,47.416,0,0,1,3.135,5.144,51.257,51.257,0,0,0,3.654,4.462c1.935,2.392,2.593,7.66,6.2,7.8-.211.218.083,1.851.118,2.153.17,1.483.057,2.909.934,4.252.2-1.532,1-.941,1.7-.136,1.158,1.339.141,1,.2,2.358.074,1.645.261.373.888,1.809a14.018,14.018,0,0,1,1.022,3.1c-2.037.161-2.971-1.5-3.724-3.117-.315-.675-.424-1.784-.981-2.311-.593-.561-1.408-.605-2.017-1.232-1.17-1.2-1.677-3.08-3.055-4.252a20.245,20.245,0,0,1-3.191-3.531c-1.424-1.75-3.391-2.978-4.885-4.671s-1.375-.77-3.255-1.384c-2-.653-5.232-6.939-7.751-4.518.1-1.583-2.272-3.073-3.471-3.647-.518-.247-1.122-.023-1.64-.395-.563-.4-.6-1.181-1.17-1.665a3.362,3.362,0,0,1-1.046.122c-.359-.183-.362-.826-.679-1.038-.878-.586-1.924-1.2-2.855-1.7-2.264-1.214-4.265-2.709-6.45-4.171-1.872-1.253-4.137-3.515-6.3-4.175-1.889-.577-3.077-.283-4.625-1.438-.843-.629-.595-.84-1.949-1.231-1.29-.372-2.014-.181-2.7-1.549-1.2-2.393-.441-7.062-.672-9.745a49.467,49.467,0,0,0-1.279-8.535c-.878-3.273-2.038-4.983-5.548-4.212-6.955,1.529-13.826,2.983-20.812,4.325-13.922,2.674-27.605,7.039-41.221,10.913-1.037.3-6.823,1.62-5.641-1.372.545-1.38,4.207-1.894,5.432-2.328,6.73-2.382,13.49-4.809,20.369-6.74m-2.339-6.09-3.05,1.164V85.435l3.05,1.664m-4.226-14.95c.883.722,2.68-1.016,3.431-1.368a9.106,9.106,0,0,1,4.351-.994,4.681,4.681,0,0,1,4.093,5.471c-.82,4.465-7.182,6.577-10.69,8.322-.112-1.582-.625-3.485.485-4.853.964-1.188,2.832-1.1,3.721-2.366,2.237-3.177-3.826-3.465-5.181-.939l-1.6-4.844c1.29-.213.723,1.024,1.393,1.57m6.258-8.74-3.787,2.448c-.626-2.825,1.507-3.2,3.787-2.448m115.02,98.322c-1.653.789-2.066-1.1-3.255-1.176,1.4-.863,1.4-.863,3.255,1.176m6.723,41.138c.206,2.708.045,5.447.406,8.144.275,2.052,1.106,3.961,1.195,6.036a17.383,17.383,0,0,1-4.44,12.5,28.217,28.217,0,0,1-11.084,7.188c-1.783.6-3.644,1.919-5.377,2.408-1.916.541-3.736-.637-5.317,1.476-1.054-9.06-.284-18.527-.367-27.645-.083-9.137.015-18.277-1.53-27.316-1.376-8.05-4.091-17.1-9.092-23.69a38.186,38.186,0,0,0-7.171-6.915,33.62,33.62,0,0,0-4.263-3.042c-2.347-1.293-4.345-1.114-6.9-1.483-3.652-.528-7.047-.973-10.713.056a50.4,50.4,0,0,0-10.228,3.712c-3.045,1.658-6.581,2.341-9.742,3.826-2.15,1.01-6.617,4.385-9,3.777-2.309-.589-5.728-4.508-7.2-6.264-1.885-2.244-3.444-4.845-5.115-7.259-.587-.848-1.784-2.157-1.936-3.246-.265-1.889.492-1.272,2.3-1.061a67.511,67.511,0,0,1,13.452,2.866c2.213.726,6.541,3.667,8.754,1.9,3.379-2.69-1.755-7.313-3.636-8.867-3.2-2.646-6.93-4.612-10.346-6.963-3.629-2.5-8.427-5.16-10.763-9.008,6.82,2.014,13.633,4.319,20.253,6.915a73.043,73.043,0,0,1,8.868,4.021c1.6.886,4.827,3.285,6.751,2.136,4.183-2.5-5.425-9.75-6.811-11.232-2.154-2.3-4.265-4.584-6.632-6.674-1.6-1.409-4.106-2.4-4.849-4.48,2.651.959,4.795,2.839,7.277,4.117a11.775,11.775,0,0,0,3.921,1.259,6.834,6.834,0,0,1,2.918,1.071,19.29,19.29,0,0,0,2.958,1.431,12.367,12.367,0,0,1,2.72.7q.5.719,1.041,1.412.6.176,1.183.407c.582.52.928,1.235,1.494,1.771,4.112,3.888,9.611,6.671,14.22,9.928,4.361,3.081,8.989,5.869,13.177,9.232a112.2,112.2,0,0,1,13.922,12.673,79.476,79.476,0,0,1,6.168,8.5c1.409,2.1,3.459,3.843,4.676,6.008,2.656,4.721,4.86,9.826,7.719,14.471,2.913,4.734,6.708,9.437,7.145,15.2m-39.18,27.4c.794-3.277,5.275-7.1,8.139-8.548-1.443,3.57-5.289,6.005-8.139,8.548M304.7,241.7c-2.442,5.068-13.182,5.648-11.725-1.852.714-3.675,3.744-5.929,6.346-8.334,1.2-1.111,4.147-5.086,6.009-4.445-.087,2.858-.255,5.728-.249,8.586,0,1.908.484,4.252-.38,6.045m-3.1-58.408c.991,2.226,1.978,4.079.139,6.07-.829.9-3.533,2.864-4.756,2.428-3.926-1.4,3.559-7.5,4.616-8.5m-23.745-19.8c.945-.052,1.863.089,2.8.032a6.992,6.992,0,0,1,1.892-.106l.273.4q.176,1.332,1.4.29a9.226,9.226,0,0,1,2.952,1.032c-2.923,2.108-6.481,4.559-10.065,5.266-5.665,1.118-4.1-6.644.751-6.911m-86.838,47.4c-.587,1.181-2.276-1.771-2.695-2.321.78,0,3.289,1.129,2.695,2.321m45.514-31.1a114.582,114.582,0,0,1,14.354-6.735c.831,4-3.222,9.174-5.719,11.914a24.237,24.237,0,0,1-7.19,5.79c-2.96,1.379-6.194.773-6.05-3.1a16.089,16.089,0,0,1,.95-4.981c.742-1.666,2.145-2.012,3.655-2.892m-59.491-72.842c.655-.038,7.771-.959,7.733-.073-.112,2.661-7.019.571-7.733.073m-50.317,51.382c3.758-4.637,9.826-9.642,9.914-16.124.131-9.536-10.452-4.778-15.773-4.382,2.814-2.764,16.952-14.362,8.589-18.482-2.4-1.184-5.82-.027-8.233.593-4.28,1.1-8.259,3.007-12.463,4.334,3-3.2,8.195-6.832,8.025-11.676-.208-5.9-5.047-4.47-9.232-3.6-1.608.333-8.792,3.191-10.141,1.25-.494-.711.306-1.614.475-2.247a8.2,8.2,0,0,0,.217-2.654c.021-2.308,1.553-5.271.3-7.417a10.5,10.5,0,0,0-.734,1.523c-.412-1.249-.135-2.573-.548-3.823,10.447,2.672,21.075,4.134,31.587,6.415,5.322,1.155,10.331,3.143,15.725,4.038,5.441.9,10.787,2.282,16.238,3.142,4.973.785,9.738,2.091,14.663,3.093,4.8.976,9.725-1.164,14.411-2.248,10.5-2.427,20.987-4.914,31.5-7.27,12.127-2.719,24.743-5.043,36.351-9.578q.337,9.065,1.447,18.078c-5.126-2.423-12.734-5.583-17.917-1.247a6.836,6.836,0,0,0-1.894,7.278c.893,2.773,3.625,4.061,5.429,6.149-5.488-1.407-19.647-11.327-22.167-1.3-1.78,7.082,6.9,11.657,11.148,15.644-4.216-.825-9.862-4.2-12.338,1.221-2.139,4.683.438,9.779,3.077,13.642,1.43,2.093,3.039,4.063,4.56,6.09.8,1.073,1.589,2.16,2.434,3.2s2.446,2.137,3.04,3.261c1.2,2.266-1.218,2.4-3.094,3.223-2.343,1.022-4.355,2.738-6.5,4.106-4.906,3.132-9.194,6.042-14.992,7.044-5.969,1.03-11.717,2.106-17.607,3.544-5.872,1.433-10.665,2.81-16.668.958-2.737-.845-4.965-1.595-7.868-1.436-3.049.167-4.831.009-7.338-1.88-10.786-8.123-22.494-14.79-33.627-22.459m-19.446-8.156c4.169-2.091,8.365-4.194,12.672-5.991,3.564-1.488,8.977-3.222,12.879-2.57a20.878,20.878,0,0,1-5.26,7.225c-1.9,1.84-4.283,4.617-6.586,5.9-2.093,1.166-4.527-.68-6.59-1.454-2.267-.85-5.388-1.246-7.114-3.111m1.048,10.553c2.077-.863,6.542,2.033,8.431,2.786a49.968,49.968,0,0,1,10.719,5.363,51.9,51.9,0,0,1-13.9,11.806c-3.538,1.951-9.5,4.189-12.838.646-4.192-4.453.848-13.526,3.816-17.341q.147.979.3,1.958c.947-1.517,1.67-4.469,3.474-5.219m76.266,39.522c-2.592.546-3.473.053-5.184-1.934a47.455,47.455,0,0,0-3.6-3.947c-1.331-1.232-4.617-4.2-.43-2.493,3.817,1.56,7.087,2.34,11.286,1.729,4.8-.7,9.279-2.729,14.013-3.756-2.6,2.271-5.172,4.565-7.772,6.829-2.747,2.393-4.826,2.838-8.316,3.573m.592,18.265c-5.68,4.274-17.114,3.812-13.265-5.592a17.116,17.116,0,0,1,2.349-3.989,7.217,7.217,0,0,1,1.327-1.521c1.256-.762.908-.854,2.116.417,1.042,1.1,9.185,10.05,7.474,10.687m-1.684-16.341c.52-.169,2.712-1.44,3.212-.737s-3.792,3.176-3.212.737m41.347,65.186c-1.277,3.055-11.5,7.479-9.593,1.319.843-2.729,1.638-4.794,4.82-5,1.836-.119,5.9.991,4.773,3.682m18.333-41.409c1.683-2.45,7.239-5.763,9.611-2.109,1.143,1.76-1.63,2.661-3.308,2.209a11.573,11.573,0,0,0-2.616-.822c-1.259-.052-2.489.936-3.687.722m4.46,2.432c-1.144,1.158-8.044,6.965-9.162,6.069,2.253-3.221,4.841-6.819,9.162-6.069M236.363,287.13c-2.4.135-1.2-3.475-.968-4.919.58,1.005,3.63,4.768.968,4.919m6.088-6.472c-.775-1.379-2.863-3.433-2.391-5.207.361-1.356,3.621-3.181,4.986-2.4,1.813,1.034-.815,7.838-2.595,7.609M299.3,266.2c-1.025,3.531-2.087,2.62-5.3,3.3s-5.454,3.424-8.292,4.892c.986-2.085,1.6-4.625,3.248-6.316.382-.391,2.721-1.162,1.389-2.067-1.165-.791-2.841,1.776-3.341,2.475a47.886,47.886,0,0,0-5.6,11.608,33.474,33.474,0,0,0-1.588,5.97c-.295,1.821.023,3.726-.277,5.5-.483,2.855-4.362,2.87-6.695,3.607a46.5,46.5,0,0,1-6.406,1.748c-1.9.311-3.872-.256-5.714.118-1.994.405-2.89,1.589-5.157,1.321-1.848-.217-3.577-1.067-5.45-1.152-1.753-.079-3.5.527-5.244.034-1.758-.5-1.674-.691-1.273-2.419l.751,1.4c.7-.549,1.186-2.225,1.615-3.012.666-1.219,1.209-1.64.962-3.159-.364-2.242-2.385-3.837-2.844-5.969-.478-2.225,1.167-4.044,2.139-5.9a7.255,7.255,0,0,0,.2-7.057l2.52.666c-1.151-2.5-5.056-1.487-7.014-.746-.984.372-2.544,1.834-3.6,1.8-1.455-.051-2.214-1.964-2.839-3.018a97.11,97.11,0,0,0-6.016-8.888c-.589-.778-1.36-1.278-1.157-2.166.173-.752,1.861-1.82,2.408-2.284,2.053-1.736,4.667-2.7,6.595-4.525,2.915-2.761,6.276-4.74,9.256-7.447,3.1-2.82,6.3-5.41,9.538-8.074,3.277-2.7,6.115-5.879,9.368-8.606.843,1.527,2.476,7,4.343,7.42,2.177.493,2.113-2.083,2-3.633-.155-2.21-1.381-4.355-1.518-6.464-.147-2.255,2.023-3.263,3.661-4.568,2.53-2.015,8.128-6.605,5.118-10.383-2.592-3.254-11.022,2.985-13.345,4.861a40.948,40.948,0,0,1-5.723,4.294c-1.564.883-4.186,4.282-6.039,3.969-2.2-.373-3.065-2.78-5.762-2.7-2.635.076-4.873,1.975-6.507,3.88-3.694,4.307-4.963,10.07-8.33,14.56-1.66,2.214-3.812,4.041-5.613,6.136-1.977,2.3-2.4,4.947-4.346,7.2-5.579-7.432-11.657-14.468-17.539-21.657-2.938-3.589-5.815-7.221-8.69-10.861-1.078-1.364-2.293-2.644-3.279-4.077-1.352-1.963-1.108-3.539-1.639-5.727-.235-.97-1.336-2.131-1.042-3.059.4-1.246,3.182-2.224,4.186-2.733a116.612,116.612,0,0,0,11.645-7.227c7.081-4.709,14.245-9.125,21.776-13.147-.13,1.733-1.258,3.528-.5,5.267.353-1,.911-5.456,2.247-5.648-.256.036-.045,5.714.161,6.524a4.981,4.981,0,0,0,4.964,4.057c4.873-.032,9.24-5.332,11.945-8.844a21.282,21.282,0,0,0,4.235-8.118c.58-2.672-.058-4.53,2.72-5.887a85.841,85.841,0,0,1,17.538-6.527c-.273,2.627-1.034,5.86,1.353,7.749,2.635,2.085,6.083.227,8.564-1.153,2.458-1.366,6.247-5.12,9.133-4.029,2.839,1.073,4.815,4.633,6.4,7,1.4,2.083,2.924,3.587,1.3,5.909a65.513,65.513,0,0,0-4.457,7.972c-.56,1.087-1.094,1.8-.7,2.909a15.874,15.874,0,0,0,1.984,2.821c2.529,1.968,5.943-1.775,7.748-3.2.637,6.119.779,12.21,1.036,18.348.189,4.5,1.929,8.921-1.76,12.207a37.181,37.181,0,0,0-9.014,11.106c-1.2,2.376-2.278,4.815-3.576,7.142-.868,1.555-2.7,3.835-1.578,5.665,1.182-1.122,1.533-2.827,2.518-4.092.59,2.625,1.184,5.537,3.96,6.649,3.194,1.28,6.369-.934,9.2-2.167A152.832,152.832,0,0,1,299.3,266.2m-3.265,8.065c-2.192,4.685-4.172,10.334-8.22,13.784-.89.757-4.666,3.715-6.1,3.219-1.22-.421-.549-2.886-.336-3.942,1.079-5.362,2.945-8.736,7.292-12.156,1.8-1.416,4.109-3.225,6.43-3.574,2.5-.377,1.778.869.937,2.669m61.833,111.211c-5.683-7.729-13.717-13.735-21.308-19.541-3.439-2.63-7.228-4.6-10.7-7.233a83.186,83.186,0,0,0-12.316-8.085c-8.341-4.25-17.441-7.213-25.313-12.239-3.839-2.452-8.039-4.82-11.648-7.572a52.738,52.738,0,0,1-4.419-4.14c-1.331-1.287-4.189-3.154-4.718-5.037,2.215-.363,3.474-2.512,5.452-2.731.651-.073,4.732,1.007,4.174-.973a9.025,9.025,0,0,0,2.893-.383c.514-.134,1.122.076,1.642-.109.795-.28,1.335-1.09,2.138-1.4.571-.22,2.689.026,3.011-.249.877-.75-.055-.683-.578-1.619,1.7-.044,2.875.818,4.584-.1.52-.279.96-.922,1.465-1.255.894-.591,1.217.325,1.829-.9.573,1.692.557,1.224,1.939.726a13.554,13.554,0,0,1,3.936-.978c3.744-.3,7.5.158,11.227-.108a18.39,18.39,0,0,1,3.883-.229c1.192.157.833.987,1.825-.131.23-.26-.514-.97-.158-1.344.158-.165.671-.049.865-.133,1.742-.76,1.75.3,2.059,1.686a8.6,8.6,0,0,0,2.952-1.056c-.449-.4-1.2-.842-.766-1.573,1.473.558,2.437.3,1.7,1.919,1.483.489,1.76-.149,3.091-.289.788-.082,1.887.406,2.543-.223.717-.687-.414-1.433.9-2.023a1.3,1.3,0,0,1,.6.622q1.066.322-.383.839c2.588,1.341,1.98-.158,3.067-1.745.251-.365,1.375-1.5,1.888-.953.777.832-.809,1.1-.469,1.924.589,1.434,2.646-.4,3.277-1.131.478-.549.672-1.6,1.187-2.011.715-.569,1.744.311,2.639.153,4.09-.717,7.952-6.216,4.871-9.9-.828-.99-1.529-.793-2.515-1.417a12.447,12.447,0,0,1-2.305-2.566,16.55,16.55,0,0,0-6.473-4.483,109.922,109.922,0,0,0-18.125-5.066c-2.818-.556-5.819-1.406-8.7-1.4-1.7,0-4.26,1.325-5.85.692-3.09-1.232,1.446-7.534,2.2-9.57a107.956,107.956,0,0,0,4.946-18.637,23.035,23.035,0,0,1,.574-3.991c.508-1.346.617-1.156,1.7-1.265,1.965-.2,4.113.832,6.159.476,2.267-.395,4.717-.211,7.007-.913a5.02,5.02,0,0,0,2.72-1.56c.218-.278-.025-.521.113-.716.042-.061.825-.905.851-.954a6.15,6.15,0,0,1,.114-1.3c.793.658.4,2.04,1.739,2.072.238-1.473.241-1.769,1.207-2.6-.073.064.728-.617.625-.545a2.06,2.06,0,0,1,.289-.734,3.47,3.47,0,0,1,1.432-.347c1.045-1.074.611-1.647.611-3.093l2.529,1.313c.2-4.284,2.812-6.63,4.546-10.1a11.859,11.859,0,0,0,1.668-4.42c.1-1.03-.164-1.938.263-2.908.386-.88,1.251-1.355,1.613-2.314.711-1.888.181-4.3.22-6.256.055-2.718.326-5.426.415-8.143a89.186,89.186,0,0,0-1.16-16.084c-.381-2.521-1.02-4.968-1.521-7.462-.412-2.05-1.4-3.973-1.752-5.881a21.974,21.974,0,0,0-.159-2.381c-.315-1.153-.842-2.285-1.233-3.417-.914-2.643-1.818-5.283-2.846-7.885-1.993-5.044-4.326-9.936-6.542-14.883-2.132-4.757-3.9-9.661-6.659-14.1-2.72-4.376-5.649-8.676-8.646-12.865-3.123-4.361-7.07-8.108-10.1-12.51-5.686-8.265-13.616-15.075-21.913-20.7-17.121-11.605-35.622-23.192-56.152-27.17a56.723,56.723,0,0,0-9.381-1.093c-1.957-.049-5.2.9-7.051.235-2.075-.742-1.885-3.072-2.4-4.9-.668-2.35-2.174-3.889-3.886-5.55-1.8-1.749-3.435-3.791-5.681-4.98a23.05,23.05,0,0,0-7.483-2.019c-2.251-.326-5.616-.021-7.672-1-1.874-.894-.948-1.825.806-1.059a3.385,3.385,0,0,1,.728-1.872c.249-.3,1.425-.722,1.453-1,.033-.328-.953-1.263-1.094-1.687a4.749,4.749,0,0,1,.229-3.03c1.769,1.572,2.281,2.269,4.256.766a5.739,5.739,0,0,1,2.056-1.234c.262-.087.85.181,1.078.031.873-.575.07-.439.484-1.118-.1.171.629-1.634.594-1.257.089-.962.374-.666-.207-1.848-1.138-2.311-4.033-2.406-2.557-5.044.58-1.038,1.091-.935,1.255-2.439a23.9,23.9,0,0,0-.025-2.56c-.007-1.683.31-2.861-1.267-3.718-1.516-.824-2.914.08-3.53-1.964-.645-2.145,0-4.895-2.319-6.364-1.7-1.073-4.15-.156-6.026-.681s-3.61-2.449-5.518-.972c-1.356,1.05-2.075,3.631-4.63,2.235-1.153-.63-1.788-2.743-2.515-3.928-1.158-1.889-2.087-2.572-3.87-.732-1.1,1.135-3.416,3.9-3.558,5.468-.155,1.734,1.358,2.459-.542,3.485s-2.949.272-4.483,2.344c-1.521,2.056-.344,3.191-2.106,5.158-2.2,2.458-3.376,3.519-3.345,6.831.021,2.272-1.986,4.234-.815,6.389,1.312,2.415,5.142,3.42,7.464,4.4-.775,1.432-1.838,2.35-.934,3.825.82,1.335,3.137,1.613,4.573,1.37.966-.163,1-.016,1.761-.7.5-.445-.185-1,.841-1.246,1.091-.263,2.835,1.877,3.544,2.412-1.584,2.056-5.936,2.441-8.238,3.483-1.4.636-2.692,1.576-4.121,2.144-1.3.515-2.873.4-4.048,1.194-2.029,1.377-2.874,4.79-4.117,6.8a7.092,7.092,0,0,1-5.474,3.8c-3.37.588-6.083.824-9.226,2.292-3.838,1.792-7.621,3.684-11.39,5.616a171.966,171.966,0,0,0-17.372,10.084C95.95,80.174,90.2,84.29,84.506,88.411,78.87,92.485,74.138,97.5,69.241,102.427c-3.958,3.984-7.431,8.284-11.374,12.267-4.654,4.7-8.078,10.638-12.393,15.627a37.462,37.462,0,0,0-6.1,8.628c-1.2,2.606-3.289,5.163-4.683,7.9-1.781,3.5-3.467,6.936-5.467,10.316-.82,1.387-1.8,2.577-2.661,3.9-1.109,1.7-1.044,3.334-1.342,5.288l-.934-1.43c-.565,1.234-1.248,2.448-1.737,3.711-.312.806-.263,1.951-.577,2.656-.394.885-.873.767-1.363,1.5-.525.788-.693,1.848-1.246,2.693-2.389,3.655-3.309,8.293-4.537,12.463-1.647,5.6-1.387,12.026-1.3,17.795a135.2,135.2,0,0,0,1.344,18.216,43.857,43.857,0,0,0,5.382,15.485c2.42,4.172,5.758,6.6,10.033,8.74,1.963.981,3.785.678,5.846.835,2.257.172,3.8.785,6.185.245,1.146-.259,1.688-1.093,2.6-1.371.564-.172.867.109,1.408.044a18.32,18.32,0,0,1,3.223-.382c2.611.285,2.173,4.232,2.43,6.248.4,3.105.685,6.243,1.218,9.328,1.121,6.489,3.542,12.551,4.973,18.928a69.7,69.7,0,0,0-18.535,4.557c-6.235,2.517-12.539,3.372-19.1,4.624a37.86,37.86,0,0,0-16.958,7.322c-2.3,1.857-4.7,4.03-3,7.088,1.082,1.956,3.031,2.453,4.714,3.59.34-.431-.643-1.342-.824-1.595,1.415.29,1.371.951,2.4,1.525a15.252,15.252,0,0,0,2.631.84c2.413.867,3.6,3.03,5.985,3.638.75.191,1.732.648,2.5.777.922.156,1.612-.247,2.546-.076a5.186,5.186,0,0,0,1.636.712q.576-.267,1.138-.565c1.342.139,2.172.983,3.262,1.677.073-.874-.032-1.782.8-2.352.323.85-.2,1.388.683,1.973,1.117.742,2.584-.184,3.584-.653.283,2.825,6.823,2.658,8.9,2.618,2.871-.056,5.739-1.194,8.636-.559,1.478.324,3.055.662,4.526,1.084,1.771.506,3.913.958,5.656,1.6.693.254,1.542,1.067,2.28,1.013.588-.044.745-.911,1.429-.886.774.028,1.034.89,1.7,1.15,1,.387,1.925-.349,2.877.023.343.133.806.708,1.245.894a16.191,16.191,0,0,0,2.723.424,22.537,22.537,0,0,0,2.889.128c.725.052.709.54,1.056.571.4.036,1.091-1.333,1.626-1.533.779-.292,2.192.4,2.986.526a112.419,112.419,0,0,1-20.211,20.728c-8.112,6.511-16.418,13.014-25.116,18.724-7.9,5.186-15.543,9.67-21.666,16.99C8,384.8-.222,391.408,1.045,400.355s10.972,12.577,18.75,14.283c9.781,2.147,19.851,1.283,29.659,2.489a59.694,59.694,0,0,0,13.041-.2c4.973-.518,9.235-3.764,13.51-6.11,7.69-4.221,14.264-9.869,21.839-14.222,9.484-5.451,18.868-11.226,29.265-14.876,4.837-1.7,9.816-3.636,13.718-7.129a16.424,16.424,0,0,1,1.669-1.733c1.115-.728,1.414.01,2.062-.21.5-.17.98-.708,1.411-.869a6.356,6.356,0,0,1,2.8-.24c-1.048-.6-2.008-2.163-.92-3.433,1.863-2.175,2.184,1.3,2.884,2.106.594-.762.366-1.441.215-2.307l1.5.993a6.272,6.272,0,0,1,.871-4.682c.819-1.347,1.022-1.157,1.247-3.023,2.545,2.322,3.042-3.315,3.271-5.371.221-1.993,0-3.424,1.313-5.167,1.407-1.871,3.547-3.054,5.334-4.508,2.822-2.3,5.927-5.2,9.83-3,3.08,1.74,4.757,6,7.647,8.195,1.753,1.33,3.6,1.464,4.721,3.525.9,1.666,1.2,3.661,2.05,5.372a44.361,44.361,0,0,0,8.435,12.073c3.159,2.961,7.215,2.946,10.911,4.782a94.663,94.663,0,0,0,11.336,5.106c4.231,1.44,8.793,2.051,12.912,3.8,2.119.9,4.014,2.247,6.151,3.106,2.305.926,4.734,1.578,7.07,2.427,9.256,3.362,18.313,7.484,28.036,9.348,4.312.826,8.3,3.071,12.649,3.544a35.1,35.1,0,0,1,5.207.926c2.86.731,2.254,1.12,3.308,3.5,1.734,3.926,5.967,1.6,9.231,1.7,5.224.158,10.368-.687,15.584-.728a83.548,83.548,0,0,0,26.726-4.092c8.858-3.006,18.943-10.251,11.581-20.261" transform="translate(0 0)" fill-rule="evenodd"/>
      <path id="ink-3" data-name="ink" d="M416.321,129.775c.125.125.418.2,0,0" transform="translate(-163.879 -51.084)" fill-rule="evenodd"/>
      <path id="ink-4" data-name="ink" d="M146.1,401.952c1.981-2.007,10.409-1.6,11.047,1.99.71,4.009-6.821,10.063-9.577,11.76-3.547,2.184-7.876,2.593-7.247-2.891.475-4.143,2.957-8,5.778-10.859m6.96-4.132c.257,1.11-1.637.733-2.159.469-.246-.505,1.9-1.584,2.159-.469m-14.535,7.351c1.681.151,3.607-2.546,4.876-3.465.56.866-3.136,5.629-3.543,6.716-1.016,2.715-1.581,6.146-.2,8.854,4.047,7.915,14.4-3.387,16.995-7.335,1.812-2.761,3.067-6.185.507-8.891-.911-.964-2.417-1.231-3.263-2.147-1.115-1.2-.238-2.76-2.478-2.5-1.546.181-3.4,1.577-4.905,2.081a18.216,18.216,0,0,0-5.022,2.365c-.357.254-5.046,4.132-2.969,4.319" transform="translate(-54.322 -156.028)" fill-rule="evenodd"/>
      <path id="ink-5" data-name="ink" d="M320.72,407.434c-1.057,5.438-6.445,11.016-12.115,11.233-5.646.215-7.475-5.7-6.478-10.415.85-4.021,4.326-11.008,9.285-10.238,3.9.6,10.214,4.76,9.308,9.421m-3.6-9.089c-3.58-2.77-8.526-4.052-12.675-1.854-1.361.721-6.791,3.9-5.139,6.051,2.228-1.726,4.152-4.123,7.047-4.7-.487,2.245-3.268,4.264-4.248,6.45a17.727,17.727,0,0,0-1.584,8.282c.334,4.995,3.679,8.875,8.858,8.188,4.742-.628,8.887-4.263,11.149-8.348,3.02-5.456,1.319-10.415-3.408-14.072" transform="translate(-117.698 -155.635)" fill-rule="evenodd"/>
      <path id="ink-6" data-name="ink" d="M263.016,427.274c-2.549,3.775-6.436,7.325-10.93,8.49-5.818,1.509-4.183-3.3-2.445-6.749,1.537-3.051,4.174-8.3,8.19-8.27a12.736,12.736,0,0,1,5.1,1.4c2.354,1.437,1.43,3.146.089,5.132m-5.43-8.294c.915-1.019,4.965-5.388,5.508-1.982,1.163-1.349.246-2.467-1.244-2.61-1.8-.172-3.76,1.828-5.056,2.822a25.175,25.175,0,0,0-6.49,7.005c-1.949,3.16-6.92,10.3-2.57,13.439,4.7,3.39,11.545-2.871,14.489-6.1,1.883-2.065,4.377-5.1,3.661-8.126-.879-3.719-5.206-4.11-8.3-4.449" transform="translate(-96.835 -163.114)" fill-rule="evenodd"/>
      <path id="ink-7" data-name="ink" d="M221.385,315.641c-2.631,3-7.975,7.376-12.379,6.861-4.017-.47-2.448-4.978-1.027-7.16,2.136-3.279,5-6.358,9.13-6.537,1.785-.077,4.1-.041,5.479,1.31,1.888,1.846.188,3.941-1.2,5.526m-.28-8.34c-3.082-1.065-4.293-1.471-7.288.222a20.563,20.563,0,0,0-6.189,5.463c-2.47,3.266-4.962,10.613,1.381,11.531,6.958,1.008,23.509-13.27,12.1-17.216" transform="translate(-80.696 -120.601)" fill-rule="evenodd"/>
      <path id="ink-8" data-name="ink" d="M241.61,333.523a14.49,14.49,0,0,1-7.353,4.282c1.207-2.692,3.9-8.574,7.1-9.394,1.472-.378,3.149.117,3.028,1.794-.087,1.212-1.981,2.51-2.77,3.317m2.576-7.116c-1.657-.831-1.134-1.4-3.063-.746a16.388,16.388,0,0,0-4.7,2.43c-.69.56-2.84,2.545-2.576,3.556.477,1.835,2.08-.977,2.5-1.518.722.588-2.971,5.873-3.191,6.743-.819,3.239,1.723,3.582,4.215,2.522,3.36-1.429,13.31-9.732,6.816-12.985" transform="translate(-91.717 -128.08)" fill-rule="evenodd"/>
      <path id="ink-9" data-name="ink" d="M332.027,465.913c.248-2.147.6-4.417,2.571-5.623,1.775-1.087,3.615-.93,3.877,1.3.245,2.07-1.783,5.747-3.424,6.876-2.284,1.573-2.724-.388-3.024-2.552m2.935,4.885c4.69-2.744,7.646-15.331-1-11.8-4.913,2-3.106,14.205,1,11.8" transform="translate(-130.294 -180.434)" fill-rule="evenodd"/>
      <path id="ink-10" data-name="ink" d="M270.106,389.083a5.091,5.091,0,0,1,3.086-2.683c-1,.944-2.022,1.816-3.086,2.683m1.082-3.736c-1.062,1.065-3.5,2.69-3.156,4.522.312,1.671,1.588,1.575,2.746,1.054,2.427-1.091,3.778-5.868,6.318-6.316-2.817-1.785-3.474-1.7-5.907.741" transform="translate(-105.495 -150.911)" fill-rule="evenodd"/>
      <path id="ink-11" data-name="ink" d="M273.529,213.7q.2,7.632.366,15.264c.039,1.788-.387,4.337.149,6.05.237.754,2.38,4.025,3.14,4.237,2.66.741,1.709-5.928,1.728-7.57.065-5.54-.016-11.087-.039-16.628-.013-2.855.794-26.8-2.911-26.679-.638.021-2.21,2.758-2.447,3.306-.745,1.724-.471,4.278-.454,6.115.05,5.3.326,10.607.466,15.906" transform="translate(-107.463 -74.152)" fill-rule="evenodd"/>
      <path id="ink-12" data-name="ink" d="M310.131,231.29c.209,1.407.1,3.753,1.683,4.482,1.378.634,1.906-.121,2.421-1.3,1.185-2.712.757-6.857.736-9.661-.044-5.557-.669-11.09-1.1-16.626-.19-2.428.2-4.868-.1-7.41-.133-1.116-.266-5.6-2.334-5.394-1.869.189-1.7,4.892-1.8,6.1a126.981,126.981,0,0,0,.5,29.8" transform="translate(-121.634 -76.907)" fill-rule="evenodd"/>
      <path id="ink-13" data-name="ink" d="M442.063,436.074c-.793,4.051-13.72,18.157-16.975,10.268-1.931-4.681,2.255-9.776,5.519-12.486,2.02-1.677,4.544-3.322,7.3-2.814,2.338.431,4.661,2.459,4.158,5.032m-6.675-7.265c-.913.216-8.545,5.575-8.615,5.5-.663-.666,4.151-7.84,4.647-8.468,4.081-5.171,6.789-1.255,9.342,2.809-.543-2.428-2.039-5.951-4.537-6.978-3.155-1.3-5.616,1.9-7.133,4.2a41.712,41.712,0,0,0-4.52,10.448,22.48,22.48,0,0,1-2.179,4.913c-.95,1.557-2.613,3.273-2.367,5.242,1.351-.751,2.068-2.221,2.919-3.432.95.384.623,3.412.816,4.183a4.765,4.765,0,0,0,3.853,3.784c3.813.62,7.93-2.908,10.48-5.3,2.687-2.525,5.579-5.987,5.556-9.873-.025-4.06-4.018-8.036-8.26-7.031" transform="translate(-165.327 -165.87)" fill-rule="evenodd"/>
      <path id="ink-14" data-name="ink" d="M447.694,319.239c-2.164,3.311-5.96,7.281-9.977,8.05-2.949.565-4.894-1.621-3.71-4.571,1-2.493,4.41-4.067,6.645-5.164,1.772-.871,10.037-2.9,7.042,1.686m-1.592-5.417c-4.432-.167-8.007,3.037-11.312,5.594a15.573,15.573,0,0,1,4.812-8.046c3.235-2.6,6.3-.987,9.708.315-.84-2.652-4.612-3.605-7.015-3.231-3.038.474-5.223,3.067-6.759,5.576-1.832,2.993-2.459,6.521-4.616,9.328-.988,1.285-7.1,6.093-5.718,8.059l6.853-7.274c.592,2.866,1.245,6.129,4.9,5.85,2.922-.223,6.255-2.707,8.391-4.605,2.759-2.452,8.19-11.286.752-11.568" transform="translate(-167.296 -121.389)" fill-rule="evenodd"/>
      <path id="ink-15" data-name="ink" d="M351.74,351.544c-1.877.863-6.01,2.037-7.06-.557-1.458-3.6,3.234-9.921,5.467-12.321,1.374-1.477,2.306-2.241,4.221-1.285a10.5,10.5,0,0,1,4.363,4.6c1.259,3.579-4.055,8.213-6.991,9.564m4.308-17.3c1.529.344,1.716,2.286-.2,1.541-1.432-.558-1.765-1.983.2-1.541m1.919,2.735c-.571-1.742.591-4.473-2.221-4.6-1.593-.071-4.511,1.549-5.9,2.207a9.993,9.993,0,0,0-4.749,4.267c-.933,1.817-.267,2.3,1.155.788.174.118-3.215,8.858-3.245,9.735-.132,4,2.7,6.638,6.68,5.928,3.657-.652,6.953-3.642,8.965-6.66a10.235,10.235,0,0,0,1.93-5.148c.118-2.871-1.8-4.024-2.612-6.517" transform="translate(-135.017 -130.836)" fill-rule="evenodd"/>
      <path id="ink-16" data-name="ink" d="M396.37,333.148c-1.543-2.972,2.032-7.972,5.233-6.509C408.269,329.685,398.395,337.044,396.37,333.148Zm5.987-3.879c-.716.028-5.237,1.775-4.571,2.959C398.7,333.853,402,329.922,402.358,329.269Z" transform="translate(-155.88 -128.474)" fill-rule="evenodd"/>
      <path id="ink-17" data-name="ink" d="M44,321.809c-.179-1.265-3.016.572-3,1.387.469-.939,3.371,1.25,3-1.387" transform="translate(-16.139 -126.506)" fill-rule="evenodd"/>
      <path id="ink-18" data-name="ink" d="M298.733,153.352c3.611-.266-.99-18.486-3.622-16.874-2.854,1.746.307,17.118,3.622,16.874" transform="translate(-115.729 -53.683)" fill-rule="evenodd"/>
      <path id="ink-19" data-name="ink" d="M311.382,144.451c3.384.484,2.846-7.285,1.026-8.675-3.359-2.567-5.134,8.086-1.026,8.675" transform="translate(-121.634 -53.289)" fill-rule="evenodd"/>
    </g>
  </g>
</svg>
