<svg id="Grupo_21" data-name="Grupo 21" xmlns="http://www.w3.org/2000/svg" width="25" height="25" viewBox="0 0 25 25">
  <path id="Trazado_379" data-name="Trazado 379" d="M692.714,435.071a12.5,12.5,0,1,1,12.5-12.5A12.514,12.514,0,0,1,692.714,435.071Zm0-21.875a9.375,9.375,0,1,0,9.375,9.375A9.386,9.386,0,0,0,692.714,413.2Z" transform="translate(-680.214 -410.071)" fill="#880008"/>
  <path id="Trazado_380" data-name="Trazado 380" d="M702.768,426.222H698.96a1.246,1.246,0,0,1-1.246-1.246v-3.729a1.246,1.246,0,1,1,2.492,0v2.483h2.562a1.246,1.246,0,1,1,0,2.492Z" transform="translate(-685.752 -413.224)" fill="#880008"/>
</svg>
