<svg xmlns="http://www.w3.org/2000/svg" width="29.999" height="30" viewBox="0 0 29.999 30">
  <path id="Trazado_9" data-name="Trazado 9" d="M141.205,236.755a15,15,0,1,1,15-15A15.017,15.017,0,0,1,141.205,236.755Zm0-28.863a13.863,13.863,0,1,0,13.862,13.862A13.878,13.878,0,0,0,141.205,207.892Zm-2.2,22.585h3.512v-8.8h2.451l.262-2.945h-2.712v-1.677c0-.695.14-.969.811-.969h1.9v-3.057H142.8c-2.614,0-3.792,1.151-3.792,3.355v2.348h-1.828v2.982h1.828Z" transform="translate(-126.205 -206.755)" fill="#ee2632"/>
</svg>
