<svg id="Grupo_4" data-name="Grupo 4" xmlns="http://www.w3.org/2000/svg" width="171.275" height="48.298" viewBox="0 0 171.275 48.298">
  <path id="Trazado_12" data-name="Trazado 12" d="M27.634,38.707a14.371,14.371,0,0,1,.719-4.652,9.92,9.92,0,0,1,2.115-3.616,9.7,9.7,0,0,1,3.425-2.347,12.017,12.017,0,0,1,4.652-.846q.888,0,1.692.042a14.782,14.782,0,0,1,1.586.169,11.949,11.949,0,0,1,1.607.381q.825.254,1.84.634a9.779,9.779,0,0,1-.254,2.855,11.7,11.7,0,0,1-1.057,2.77q-.72-.253-1.29-.4t-1.079-.233a8.482,8.482,0,0,0-.994-.106q-.487-.021-1.036-.021A4.82,4.82,0,0,0,36.2,34.542q-1.333,1.2-1.332,4.165a7.238,7.238,0,0,0,.4,2.6,4.173,4.173,0,0,0,1.057,1.628,3.839,3.839,0,0,0,1.522.846,6.5,6.5,0,0,0,1.84.254,9.476,9.476,0,0,0,2.136-.212,16.919,16.919,0,0,0,2.136-.677A10.327,10.327,0,0,1,45.1,45.706a11.344,11.344,0,0,1,.423,3.235,15.41,15.41,0,0,1-3.553.973,24.689,24.689,0,0,1-3.214.211,13.168,13.168,0,0,1-4.779-.8,9.366,9.366,0,0,1-3.489-2.3,9.786,9.786,0,0,1-2.136-3.595A14.457,14.457,0,0,1,27.634,38.707Z" transform="translate(-27.634 -27.198)" fill="#1e1e1e"/>
  <path id="Trazado_13" data-name="Trazado 13" d="M130.514,38.792a15.116,15.116,0,0,1,.7-4.715,10.025,10.025,0,0,1,2.072-3.658,9.145,9.145,0,0,1,3.4-2.347,13.893,13.893,0,0,1,9.43,0,9.149,9.149,0,0,1,3.4,2.347,10.031,10.031,0,0,1,2.072,3.658,15.116,15.116,0,0,1,.7,4.715,14.574,14.574,0,0,1-.7,4.631,9.866,9.866,0,0,1-2.072,3.595,9.043,9.043,0,0,1-3.4,2.3,14.234,14.234,0,0,1-9.43,0,9.04,9.04,0,0,1-3.4-2.3,9.86,9.86,0,0,1-2.072-3.595A14.574,14.574,0,0,1,130.514,38.792Zm14.548,0a7.8,7.8,0,0,0-.909-4.144,3.054,3.054,0,0,0-2.77-1.438,3,3,0,0,0-2.749,1.438,7.947,7.947,0,0,0-.888,4.144,7.846,7.846,0,0,0,.888,4.1,3,3,0,0,0,2.749,1.438,3.052,3.052,0,0,0,2.77-1.438A7.7,7.7,0,0,0,145.062,38.792Z" transform="translate(-108.059 -27.198)" fill="#1e1e1e"/>
  <path id="Trazado_14" data-name="Trazado 14" d="M270.562,27.634a22.114,22.114,0,0,1,3.721.317,8.468,8.468,0,0,1,3.362,1.332A7.434,7.434,0,0,1,280.1,32.2a11.316,11.316,0,0,1,.951,5.033V61.8a17.128,17.128,0,0,1-1.987.275q-.889.064-1.565.064-.72,0-1.607-.064A17.113,17.113,0,0,1,273.9,61.8V37.995a4.879,4.879,0,0,0-.846-3.214,3.238,3.238,0,0,0-2.579-.973,6.364,6.364,0,0,0-.994.084,2.129,2.129,0,0,0-.655.169V49.878a17.092,17.092,0,0,1-1.988.275q-.888.063-1.565.064-.72,0-1.607-.064a17.079,17.079,0,0,1-1.988-.275V29.114a36.563,36.563,0,0,1,3.595-.994A24.131,24.131,0,0,1,270.562,27.634Z" transform="translate(-210.596 -27.5)" fill="#1e1e1e"/>
  <path id="Trazado_15" data-name="Trazado 15" d="M387.416,82.272a22.086,22.086,0,0,1,3.721.317,8.468,8.468,0,0,1,3.362,1.332,7.433,7.433,0,0,1,2.453,2.918,11.315,11.315,0,0,1,.951,5.033v12.644a17.123,17.123,0,0,1-1.987.275q-.889.064-1.565.064-.72,0-1.607-.064a17.117,17.117,0,0,1-1.988-.275V92.633a4.88,4.88,0,0,0-.846-3.214,3.237,3.237,0,0,0-2.579-.973,6.338,6.338,0,0,0-.994.085,2.12,2.12,0,0,0-.655.169v15.816a17.148,17.148,0,0,1-1.988.275q-.888.064-1.565.064-.72,0-1.607-.064a17.113,17.113,0,0,1-1.988-.275V83.752a36.552,36.552,0,0,1,3.595-.994A24.133,24.133,0,0,1,387.416,82.272Z" transform="translate(-301.945 -70.212)" fill="#1e1e1e"/>
  <path id="Trazado_16" data-name="Trazado 16" d="M504.878,95.586a3.91,3.91,0,0,0,1.628,2.452,5.763,5.763,0,0,0,3.066.719,14.528,14.528,0,0,0,2.749-.3,16.538,16.538,0,0,0,3-.888,13.564,13.564,0,0,1,1.036,2.622,12.424,12.424,0,0,1,.487,3.172,21.975,21.975,0,0,1-7.7,1.4,14.436,14.436,0,0,1-5.223-.846,9.257,9.257,0,0,1-3.552-2.347A9.411,9.411,0,0,1,498.344,98a14.919,14.919,0,0,1-.655-4.525,14.746,14.746,0,0,1,.677-4.525,10.38,10.38,0,0,1,2.03-3.679,9.575,9.575,0,0,1,3.383-2.474,11.493,11.493,0,0,1,4.736-.909,9.954,9.954,0,0,1,4,.761,8.711,8.711,0,0,1,2.981,2.093,9.111,9.111,0,0,1,1.882,3.214,12.326,12.326,0,0,1,.656,4.081,17.981,17.981,0,0,1-.106,2.051q-.106.91-.19,1.5Zm3.383-8.331a3.425,3.425,0,0,0-2.326.846,3.8,3.8,0,0,0-1.142,2.622h6.766a4.135,4.135,0,0,0-.909-2.474A2.93,2.93,0,0,0,508.261,87.255Z" transform="translate(-395.091 -69.909)" fill="#1e1e1e"/>
  <path id="Trazado_17" data-name="Trazado 17" d="M616.455,93.344a14.372,14.372,0,0,1,.719-4.652,9.922,9.922,0,0,1,2.115-3.616,9.7,9.7,0,0,1,3.425-2.347,12.017,12.017,0,0,1,4.652-.846q.888,0,1.692.042a14.785,14.785,0,0,1,1.586.169,11.986,11.986,0,0,1,1.607.381q.825.253,1.84.634a9.777,9.777,0,0,1-.254,2.855,11.7,11.7,0,0,1-1.057,2.77q-.72-.254-1.29-.4t-1.079-.232a8.44,8.44,0,0,0-.994-.106q-.487-.021-1.036-.021a4.82,4.82,0,0,0-3.362,1.205q-1.332,1.205-1.332,4.165a7.238,7.238,0,0,0,.4,2.6,4.174,4.174,0,0,0,1.057,1.628,3.84,3.84,0,0,0,1.522.846,6.5,6.5,0,0,0,1.84.254,9.476,9.476,0,0,0,2.136-.212,16.947,16.947,0,0,0,2.136-.676,10.323,10.323,0,0,1,1.142,2.558,11.347,11.347,0,0,1,.423,3.235,15.419,15.419,0,0,1-3.552.973,24.687,24.687,0,0,1-3.214.211,13.165,13.165,0,0,1-4.779-.8,9.363,9.363,0,0,1-3.489-2.3,9.786,9.786,0,0,1-2.136-3.595A14.458,14.458,0,0,1,616.455,93.344Z" transform="translate(-487.934 -69.909)" fill="#1e1e1e"/>
  <path id="Trazado_18" data-name="Trazado 18" d="M725.739,90.173h-6.258a10.064,10.064,0,0,1-.275-1.586q-.063-.74-.063-1.417t.063-1.4a10.124,10.124,0,0,1,.275-1.564h19.664a10.191,10.191,0,0,1,.275,1.564q.063.719.063,1.4t-.063,1.417a10.128,10.128,0,0,1-.275,1.586h-6.258v15.858q-1.1.168-1.988.253t-1.607.085q-.72,0-1.607-.085t-1.946-.253Z" transform="translate(-568.208 -71.727)" fill="#1e1e1e"/>
  <path id="Trazado_19" data-name="Trazado 19" d="M27.973,165.347a10.029,10.029,0,0,1-.275-1.586q-.064-.74-.064-1.417t.064-1.4a10.092,10.092,0,0,1,.275-1.564H85.559a10.2,10.2,0,0,1,.275,1.564q.064.72.064,1.4t-.064,1.417a10.13,10.13,0,0,1-.275,1.586Z" transform="translate(-27.634 -130.493)" fill="#ed2632"/>
  <path id="Trazado_20" data-name="Trazado 20" d="M378.873,32.984A10.03,10.03,0,0,1,378.6,31.4q-.063-.74-.064-1.417t.064-1.4a10.093,10.093,0,0,1,.275-1.564h94.008a10.2,10.2,0,0,1,.275,1.564q.063.72.064,1.4t-.064,1.417a10.135,10.135,0,0,1-.275,1.586Z" transform="translate(-301.945 -27.021)" fill="#ed2632"/>
  <g id="Grupo_3" data-name="Grupo 3" transform="translate(76.865 40.605)">
    <path id="Trazado_21" data-name="Trazado 21" d="M383.388,221.029h-1.577V214.9h-2.02V213.59h5.618V214.9h-2.02Z" transform="translate(-379.791 -213.473)" fill="#1e1e1e"/>
    <path id="Trazado_22" data-name="Trazado 22" d="M421.9,218.174v2.854h-1.577V213.59h2.168a3.713,3.713,0,0,1,2.244.552,2.2,2.2,0,0,1,.366,2.844,2.393,2.393,0,0,1-1.023.8q1.68,2.508,2.188,3.241h-1.751l-1.776-2.854Zm0-1.282h.509a1.946,1.946,0,0,0,1.1-.249.891.891,0,0,0,.356-.784.815.815,0,0,0-.363-.753,2.208,2.208,0,0,0-1.127-.224H421.9Z" transform="translate(-411.475 -213.473)" fill="#1e1e1e"/>
    <path id="Trazado_23" data-name="Trazado 23" d="M462.589,220.919l-.54-1.771h-2.711l-.54,1.771h-1.7l2.625-7.47h1.929l2.636,7.47Zm-.916-3.094q-.748-2.406-.842-2.722t-.135-.5q-.168.652-.962,3.221Z" transform="translate(-440.224 -213.363)" fill="#1e1e1e"/>
    <path id="Trazado_24" data-name="Trazado 24" d="M504.767,213.59h1.593l-2.529,7.439h-1.72l-2.523-7.439h1.592l1.4,4.427q.116.392.241.913t.155.725a13.067,13.067,0,0,1,.382-1.638Z" transform="translate(-473.44 -213.473)" fill="#1e1e1e"/>
    <path id="Trazado_25" data-name="Trazado 25" d="M548.738,221.029h-4.284V213.59h4.284v1.292h-2.707v1.633h2.519v1.293h-2.519v1.918h2.707Z" transform="translate(-508.513 -213.473)" fill="#1e1e1e"/>
    <path id="Trazado_26" data-name="Trazado 26" d="M580.738,221.029V213.59h1.578v6.136h3.018v1.3Z" transform="translate(-536.878 -213.473)" fill="#1e1e1e"/>
    <path id="Trazado_27" data-name="Trazado 27" d="M641.186,214.413a1.608,1.608,0,0,0-1.379.669,3.119,3.119,0,0,0-.488,1.865q0,2.488,1.867,2.488a5.906,5.906,0,0,0,1.9-.392v1.323a5.277,5.277,0,0,1-2.046.382,3.12,3.12,0,0,1-2.483-.985,4.167,4.167,0,0,1-.86-2.826,4.613,4.613,0,0,1,.423-2.033,3.051,3.051,0,0,1,1.213-1.338,3.589,3.589,0,0,1,1.855-.466,5.011,5.011,0,0,1,2.178.524l-.509,1.282a8.424,8.424,0,0,0-.84-.346A2.5,2.5,0,0,0,641.186,214.413Z" transform="translate(-581.403 -213.09)" fill="#1e1e1e"/>
    <path id="Trazado_28" data-name="Trazado 28" d="M684.75,216.88a4.036,4.036,0,0,1-.916,2.839,3.969,3.969,0,0,1-5.251,0,4.051,4.051,0,0,1-.916-2.849,4,4,0,0,1,.918-2.837,3.435,3.435,0,0,1,2.633-.98,3.385,3.385,0,0,1,2.623.987A4.047,4.047,0,0,1,684.75,216.88Zm-5.429,0a3.108,3.108,0,0,0,.473,1.877,1.657,1.657,0,0,0,1.415.631q1.888,0,1.888-2.508t-1.878-2.514A1.667,1.667,0,0,0,679.8,215,3.093,3.093,0,0,0,679.321,216.88Z" transform="translate(-612.65 -213.053)" fill="#1e1e1e"/>
    <path id="Trazado_29" data-name="Trazado 29" d="M728.307,218.174v2.854H726.73V213.59H728.9a3.713,3.713,0,0,1,2.244.552,2.2,2.2,0,0,1,.366,2.844,2.394,2.394,0,0,1-1.024.8q1.68,2.508,2.189,3.241h-1.751l-1.776-2.854Zm0-1.282h.509a1.945,1.945,0,0,0,1.1-.249.891.891,0,0,0,.356-.784.815.815,0,0,0-.363-.753,2.208,2.208,0,0,0-1.127-.224h-.479Z" transform="translate(-651.004 -213.473)" fill="#1e1e1e"/>
    <path id="Trazado_30" data-name="Trazado 30" d="M772.933,215.91a2.274,2.274,0,0,1-.751,1.837,3.21,3.21,0,0,1-2.134.636h-.677v2.646h-1.578V213.59h2.377a3.16,3.16,0,0,1,2.058.583A2.124,2.124,0,0,1,772.933,215.91Zm-3.562,1.181h.519a1.729,1.729,0,0,0,1.09-.288,1.006,1.006,0,0,0,.361-.837,1.033,1.033,0,0,0-.3-.819,1.419,1.419,0,0,0-.949-.265h-.717Z" transform="translate(-683.105 -213.473)" fill="#1e1e1e"/>
    <path id="Trazado_31" data-name="Trazado 31" d="M797.836,241.24a.855.855,0,0,1,.229-.646.931.931,0,0,1,.667-.218.9.9,0,0,1,.653.224.989.989,0,0,1,0,1.274.886.886,0,0,1-.651.232.913.913,0,0,1-.662-.227A.846.846,0,0,1,797.836,241.24Z" transform="translate(-706.59 -234.411)" fill="#1e1e1e"/>
  </g>
</svg>
