<svg xmlns="http://www.w3.org/2000/svg" width="29.999" height="30" viewBox="0 0 29.999 30">
  <path id="Trazado_8" data-name="Trazado 8" d="M210.94,243.755a15,15,0,1,1,15-15A15.017,15.017,0,0,1,210.94,243.755Zm0-28.863A13.863,13.863,0,1,0,224.8,228.754,13.877,13.877,0,0,0,210.94,214.892Zm0,7.375c2.113,0,2.363.008,3.2.046a4.384,4.384,0,0,1,1.469.273,2.615,2.615,0,0,1,1.5,1.5,4.384,4.384,0,0,1,.273,1.469c.038.835.046,1.085.046,3.2s-.008,2.363-.046,3.2a4.386,4.386,0,0,1-.273,1.47,2.615,2.615,0,0,1-1.5,1.5,4.382,4.382,0,0,1-1.469.273c-.835.037-1.084.046-3.2.046s-2.363-.008-3.2-.046a4.388,4.388,0,0,1-1.47-.273,2.621,2.621,0,0,1-1.5-1.5,4.37,4.37,0,0,1-.272-1.47c-.038-.834-.046-1.084-.046-3.2s.008-2.363.046-3.2a4.369,4.369,0,0,1,.272-1.469,2.621,2.621,0,0,1,1.5-1.5,4.39,4.39,0,0,1,1.47-.273c.834-.038,1.084-.046,3.2-.046m0-1.426c-2.149,0-2.418.01-3.262.048a5.813,5.813,0,0,0-1.921.368,4.046,4.046,0,0,0-2.314,2.314,5.794,5.794,0,0,0-.368,1.921c-.039.844-.048,1.113-.048,3.262s.009,2.418.048,3.262a5.794,5.794,0,0,0,.368,1.921,4.046,4.046,0,0,0,2.314,2.314,5.833,5.833,0,0,0,1.921.368c.844.038,1.113.047,3.262.047s2.418-.009,3.262-.047a5.833,5.833,0,0,0,1.921-.368,4.05,4.05,0,0,0,2.314-2.314,5.814,5.814,0,0,0,.368-1.921c.039-.844.048-1.113.048-3.262s-.009-2.418-.048-3.262a5.813,5.813,0,0,0-.368-1.921,4.05,4.05,0,0,0-2.314-2.314,5.813,5.813,0,0,0-1.921-.368c-.844-.038-1.113-.048-3.262-.048m0,3.85A4.063,4.063,0,1,0,215,228.755a4.063,4.063,0,0,0-4.063-4.063m0,6.7a2.637,2.637,0,1,1,2.637-2.637,2.637,2.637,0,0,1-2.637,2.637m5.173-6.861a.949.949,0,1,0-.949.949.949.949,0,0,0,.949-.949" transform="translate(-195.94 -213.755)" fill="#ee2632"/>
</svg>
