<svg xmlns="http://www.w3.org/2000/svg" width="124.117" height="35" viewBox="0 0 124.117 35">
  <path id="Trazado_1" data-name="Trazado 1" d="M37.92,559.933a10.411,10.411,0,0,1,.521-3.371,7.189,7.189,0,0,1,1.532-2.62,7.033,7.033,0,0,1,2.482-1.7,8.705,8.705,0,0,1,3.371-.613q.643,0,1.226.031a10.652,10.652,0,0,1,1.149.123,8.671,8.671,0,0,1,1.165.276q.6.184,1.333.46a7.092,7.092,0,0,1-.184,2.069,8.473,8.473,0,0,1-.766,2.007q-.521-.184-.935-.291t-.782-.169a6.11,6.11,0,0,0-.72-.077q-.353-.015-.751-.015a3.492,3.492,0,0,0-2.436.873,3.932,3.932,0,0,0-.965,3.019,5.244,5.244,0,0,0,.291,1.885,3.027,3.027,0,0,0,.766,1.18,2.79,2.79,0,0,0,1.1.613,4.713,4.713,0,0,0,1.333.184,6.864,6.864,0,0,0,1.547-.153,12.259,12.259,0,0,0,1.548-.49A7.485,7.485,0,0,1,50.577,565a8.222,8.222,0,0,1,.307,2.345,11.169,11.169,0,0,1-2.574.7,17.89,17.89,0,0,1-2.329.153,9.539,9.539,0,0,1-3.463-.582,6.784,6.784,0,0,1-2.528-1.67,7.085,7.085,0,0,1-1.548-2.6A10.471,10.471,0,0,1,37.92,559.933Zm16.273.061a10.957,10.957,0,0,1,.506-3.417,7.268,7.268,0,0,1,1.5-2.651,6.629,6.629,0,0,1,2.467-1.7,10.068,10.068,0,0,1,6.834,0,6.629,6.629,0,0,1,2.467,1.7,7.268,7.268,0,0,1,1.5,2.651,10.952,10.952,0,0,1,.506,3.417,10.561,10.561,0,0,1-.506,3.356,7.147,7.147,0,0,1-1.5,2.6,6.551,6.551,0,0,1-2.467,1.67,9.294,9.294,0,0,1-3.432.582,9.2,9.2,0,0,1-3.4-.582,6.551,6.551,0,0,1-2.467-1.67,7.147,7.147,0,0,1-1.5-2.6A10.565,10.565,0,0,1,54.193,559.994Zm10.542,0a5.648,5.648,0,0,0-.659-3,2.214,2.214,0,0,0-2.007-1.042,2.177,2.177,0,0,0-1.992,1.042,5.758,5.758,0,0,0-.643,3,5.685,5.685,0,0,0,.643,2.973,2.176,2.176,0,0,0,1.992,1.042,2.213,2.213,0,0,0,2.007-1.042A5.576,5.576,0,0,0,64.735,559.994Zm16.64-8.3a16.014,16.014,0,0,1,2.7.23,6.135,6.135,0,0,1,2.436.965A5.387,5.387,0,0,1,88.286,555a8.2,8.2,0,0,1,.689,3.647v17.8a12.381,12.381,0,0,1-1.44.2q-.644.046-1.134.046-.521,0-1.165-.046a12.379,12.379,0,0,1-1.44-.2V559.2a3.535,3.535,0,0,0-.613-2.329,2.346,2.346,0,0,0-1.869-.705,4.592,4.592,0,0,0-.72.061,1.534,1.534,0,0,0-.475.123v11.461a12.373,12.373,0,0,1-1.44.2q-.643.046-1.134.046-.521,0-1.164-.046a12.36,12.36,0,0,1-1.44-.2V552.761a26.506,26.506,0,0,1,2.6-.72A17.5,17.5,0,0,1,81.375,551.689Zm18.483,8.642a16,16,0,0,1,2.7.23,6.137,6.137,0,0,1,2.436.965,5.388,5.388,0,0,1,1.778,2.114,8.2,8.2,0,0,1,.689,3.647v9.163a12.383,12.383,0,0,1-1.44.2q-.644.046-1.134.046-.521,0-1.165-.046a12.371,12.371,0,0,1-1.44-.2v-8.612a3.537,3.537,0,0,0-.613-2.329,2.347,2.347,0,0,0-1.869-.7,4.608,4.608,0,0,0-.72.061,1.542,1.542,0,0,0-.475.123v11.461a12.391,12.391,0,0,1-1.44.2q-.644.046-1.134.046-.521,0-1.165-.046a12.379,12.379,0,0,1-1.44-.2V561.4a26.514,26.514,0,0,1,2.605-.72A17.5,17.5,0,0,1,99.858,560.331Zm17.621,9.868a2.834,2.834,0,0,0,1.18,1.777,4.178,4.178,0,0,0,2.222.521,10.523,10.523,0,0,0,1.992-.215,12,12,0,0,0,2.176-.643,9.833,9.833,0,0,1,.751,1.9,9.006,9.006,0,0,1,.353,2.3,15.927,15.927,0,0,1-5.577,1.011,10.463,10.463,0,0,1-3.785-.613,6.707,6.707,0,0,1-2.574-1.7,6.819,6.819,0,0,1-1.471-2.59,10.81,10.81,0,0,1-.475-3.279,10.687,10.687,0,0,1,.491-3.279,7.523,7.523,0,0,1,1.471-2.666,6.943,6.943,0,0,1,2.452-1.793,8.328,8.328,0,0,1,3.432-.659,7.213,7.213,0,0,1,2.9.552,6.311,6.311,0,0,1,2.16,1.517,6.6,6.6,0,0,1,1.364,2.329,8.934,8.934,0,0,1,.475,2.957,13.034,13.034,0,0,1-.077,1.486q-.077.659-.138,1.088Zm2.451-6.037a2.483,2.483,0,0,0-1.685.613,2.75,2.75,0,0,0-.827,1.9h4.9a3,3,0,0,0-.659-1.793A2.123,2.123,0,0,0,119.93,564.162Zm11.124,4.413a10.412,10.412,0,0,1,.521-3.371,7.189,7.189,0,0,1,1.532-2.62,7.034,7.034,0,0,1,2.482-1.7,8.7,8.7,0,0,1,3.371-.613q.643,0,1.226.031a10.737,10.737,0,0,1,1.149.123,8.655,8.655,0,0,1,1.164.276q.6.184,1.333.46a7.082,7.082,0,0,1-.184,2.069,8.477,8.477,0,0,1-.766,2.007q-.522-.184-.935-.291t-.782-.169a6.123,6.123,0,0,0-.72-.077q-.353-.015-.751-.015a3.493,3.493,0,0,0-2.436.874,3.931,3.931,0,0,0-.965,3.018,5.246,5.246,0,0,0,.291,1.885,3.028,3.028,0,0,0,.766,1.18,2.788,2.788,0,0,0,1.1.613,4.713,4.713,0,0,0,1.333.184,6.874,6.874,0,0,0,1.548-.153,12.281,12.281,0,0,0,1.548-.49,7.491,7.491,0,0,1,.827,1.854,8.222,8.222,0,0,1,.307,2.345,11.173,11.173,0,0,1-2.574.705,17.933,17.933,0,0,1-2.329.153,9.544,9.544,0,0,1-3.463-.582,6.788,6.788,0,0,1-2.528-1.67,7.087,7.087,0,0,1-1.548-2.605A10.472,10.472,0,0,1,131.054,568.575Zm21.023-3.616h-4.535a7.29,7.29,0,0,1-.2-1.149q-.046-.536-.046-1.026t.046-1.011a7.332,7.332,0,0,1,.2-1.134h14.25a7.391,7.391,0,0,1,.2,1.134q.046.521.046,1.011t-.046,1.026a7.346,7.346,0,0,1-.2,1.149h-4.535v11.492q-.8.122-1.44.184t-1.164.062q-.521,0-1.165-.062t-1.41-.184ZM38.165,576.849a7.286,7.286,0,0,1-.2-1.149q-.046-.536-.046-1.026t.046-1.012a7.332,7.332,0,0,1,.2-1.134H79.9a7.408,7.408,0,0,1,.2,1.134q.046.521.046,1.012T80.1,575.7a7.359,7.359,0,0,1-.2,1.149Zm55.5-20.936a7.269,7.269,0,0,1-.2-1.149q-.046-.536-.046-1.026t.046-1.012a7.309,7.309,0,0,1,.2-1.134h68.124a7.387,7.387,0,0,1,.2,1.134q.046.522.046,1.012t-.046,1.026a7.345,7.345,0,0,1-.2,1.149Zm2.56,30.58H95.085v-4.439H93.621V581.1h4.071v.951H96.228Zm4.946-2.069v2.069h-1.143V581.1H101.6a2.689,2.689,0,0,1,1.626.4,1.6,1.6,0,0,1,.265,2.061,1.735,1.735,0,0,1-.742.581q1.217,1.818,1.586,2.349H103.07l-1.287-2.069Zm0-.929h.369a1.41,1.41,0,0,0,.8-.181.645.645,0,0,0,.258-.568.59.59,0,0,0-.263-.546,1.6,1.6,0,0,0-.817-.162h-.347Zm8.653,3-.391-1.283h-1.965l-.391,1.283h-1.232l1.9-5.413h1.4l1.91,5.413Zm-.664-2.242q-.542-1.744-.61-1.973t-.1-.361q-.122.472-.7,2.334Zm7.159-3.149h1.154l-1.832,5.391H114.4l-1.829-5.391h1.154l1.014,3.208q.084.284.175.662t.113.525a9.436,9.436,0,0,1,.277-1.187Zm6.448,5.391h-3.1V581.1h3.1v.936h-1.961v1.184h1.825v.937h-1.825v1.39h1.961Zm2.635,0V581.1h1.143v4.447h2.187v.944Zm11.538-4.517a1.165,1.165,0,0,0-1,.485,2.259,2.259,0,0,0-.354,1.352q0,1.8,1.353,1.8a4.277,4.277,0,0,0,1.375-.284v.959a3.824,3.824,0,0,1-1.483.276,2.261,2.261,0,0,1-1.8-.713,3.021,3.021,0,0,1-.623-2.048,3.344,3.344,0,0,1,.306-1.473,2.21,2.21,0,0,1,.879-.97,2.6,2.6,0,0,1,1.344-.338,3.629,3.629,0,0,1,1.578.38l-.369.929a6.1,6.1,0,0,0-.608-.25A1.813,1.813,0,0,0,136.943,581.976Zm8.926,1.814a2.924,2.924,0,0,1-.664,2.057,2.877,2.877,0,0,1-3.805,0,2.937,2.937,0,0,1-.664-2.065,2.9,2.9,0,0,1,.665-2.056,2.489,2.489,0,0,1,1.908-.71,2.453,2.453,0,0,1,1.9.715A2.933,2.933,0,0,1,145.869,583.79Zm-3.934,0a2.253,2.253,0,0,0,.343,1.36,1.2,1.2,0,0,0,1.025.457q1.368,0,1.368-1.818t-1.361-1.822a1.208,1.208,0,0,0-1.028.459A2.241,2.241,0,0,0,141.935,583.79Zm7.7.634v2.069H148.5V581.1h1.571a2.69,2.69,0,0,1,1.626.4,1.6,1.6,0,0,1,.265,2.061,1.734,1.734,0,0,1-.742.581q1.218,1.818,1.586,2.349h-1.269l-1.287-2.069Zm0-.929h.369a1.409,1.409,0,0,0,.8-.181.645.645,0,0,0,.258-.568.59.59,0,0,0-.263-.546,1.6,1.6,0,0,0-.817-.162h-.347Zm9.077-.712a1.648,1.648,0,0,1-.544,1.331,2.326,2.326,0,0,1-1.547.461h-.49v1.918h-1.143V581.1h1.722a2.291,2.291,0,0,1,1.492.422A1.539,1.539,0,0,1,158.716,582.783Zm-2.581.855h.376a1.253,1.253,0,0,0,.79-.209.729.729,0,0,0,.261-.606.748.748,0,0,0-.22-.594,1.027,1.027,0,0,0-.688-.192h-.52Zm3.609,2.327a.619.619,0,0,1,.165-.468.675.675,0,0,1,.483-.159.653.653,0,0,1,.474.162.717.717,0,0,1,0,.924.642.642,0,0,1-.472.168.662.662,0,0,1-.479-.164A.613.613,0,0,1,159.743,585.965Z" transform="translate(-37.92 -551.592)" fill="#fff"/>
</svg>
