<svg xmlns="http://www.w3.org/2000/svg" width="36.399" height="30" viewBox="0 0 36.399 30">
  <path id="Trazado_430" data-name="Trazado 430" d="M2935.227,1026.6h-32.465a1.958,1.958,0,0,0-1.976,1.976v26.066a1.943,1.943,0,0,0,1.976,1.958h32.465a1.95,1.95,0,0,0,1.958-1.958V1028.58A1.965,1.965,0,0,0,2935.227,1026.6Zm-1.975,26.066h-28.513v-15.589l13.3,8.864a1.952,1.952,0,0,0,1.939-.036l13.269-8.828Zm0-20.066-.291.2-13.976,9.172-14.247-9.372v-2.048h28.513Z" transform="translate(-2900.786 -1026.604)" fill="#4d4d4d"/>
</svg>
