<svg xmlns="http://www.w3.org/2000/svg" width="18.75" height="25" viewBox="0 0 18.75 25">
  <path id="Trazado_38" data-name="Trazado 38" d="M373.8,430.714a1.564,1.564,0,0,1-1.3-.7l-6.25-9.375a9.2,9.2,0,0,1-1.824-5.554,9.375,9.375,0,1,1,16.874,5.624l-6.2,9.305A1.564,1.564,0,0,1,373.8,430.714Zm0-21.875a6.257,6.257,0,0,0-6.25,6.25,6.178,6.178,0,0,0,1.249,3.747l5,7.5,4.949-7.426a6.253,6.253,0,0,0-4.949-10.071Zm1.109,7.36a1.569,1.569,0,1,0-2.218-2.219,1.569,1.569,0,0,0,2.218,2.219Z" transform="translate(-364.429 -405.714)" fill="#880008"/>
</svg>
